<svg width="148" height="39" viewBox="0 0 148 39" fill="none" xmlns="http://www.w3.org/2000/svg">
<rect width="148" height="39" rx="4" fill="#294E95"/>
<g clip-path="url(#clip0_6879_31924)">
<path d="M26.439 28.1191V24.8951H25.5825C25.0521 24.8951 24.5435 24.6843 24.1685 24.3093C23.7934 23.9342 23.5825 23.4255 23.5825 22.8951V17.6851C23.5825 17.1546 23.7934 16.6459 24.1685 16.2708C24.5435 15.8958 25.0521 15.6851 25.5825 15.6851H30.5308V19.2511C30.5308 19.7815 30.7416 20.2902 31.1167 20.6653C31.4918 21.0403 32.0003 21.2511 32.5308 21.2511H38.3989V22.8981C38.3989 23.4285 38.1881 23.9372 37.813 24.3123C37.4379 24.6873 36.9294 24.8981 36.3989 24.8981H29.939L26.439 28.1211V28.1191Z" stroke="white" stroke-width="1.5"/>
<path d="M40.4555 21.213H32.5305C32.0001 21.213 31.4914 21.0023 31.1163 20.6272C30.7412 20.2521 30.5305 19.7434 30.5305 19.213V12.084C30.5305 11.5536 30.7412 11.0448 31.1163 10.6698C31.4914 10.2947 32.0001 10.084 32.5305 10.084H45.4165C45.947 10.084 46.4557 10.2947 46.8307 10.6698C47.2058 11.0448 47.4165 11.5536 47.4165 12.084V19.214C47.4165 19.7444 47.2058 20.2531 46.8307 20.6282C46.4557 21.0033 45.947 21.214 45.4165 21.214H44.8535V25.444L40.4555 21.213Z" stroke="white" stroke-width="1.5"/>
<path d="M43.9846 13.1929H33.9846V14.6929H43.9846V13.1929Z" fill="white"/>
<path d="M43.9846 16.2642H33.9846V17.7642H43.9846V16.2642Z" fill="white"/>
</g>
<path d="M62.6234 23.272C62.7408 23.272 62.8421 23.3173 62.9274 23.408L63.7754 24.328C63.3061 24.9093 62.7274 25.3547 62.0394 25.664C61.3568 25.9733 60.5354 26.128 59.5754 26.128C58.7168 26.128 57.9434 25.9813 57.2554 25.688C56.5728 25.3947 55.9888 24.9867 55.5034 24.464C55.0181 23.9413 54.6448 23.3173 54.3834 22.592C54.1274 21.8667 53.9994 21.0747 53.9994 20.216C53.9994 19.3467 54.1434 18.552 54.4314 17.832C54.7194 17.1067 55.1248 16.4827 55.6474 15.96C56.1701 15.4373 56.7941 15.032 57.5194 14.744C58.2501 14.4507 59.0554 14.304 59.9354 14.304C60.7941 14.304 61.5434 14.4427 62.1834 14.72C62.8288 14.992 63.3808 15.3547 63.8394 15.808L63.1194 16.808C63.0768 16.872 63.0208 16.928 62.9514 16.976C62.8874 17.024 62.7968 17.048 62.6794 17.048C62.5568 17.048 62.4314 17 62.3034 16.904C62.1754 16.808 62.0128 16.704 61.8154 16.592C61.6181 16.48 61.3674 16.376 61.0634 16.28C60.7648 16.184 60.3834 16.136 59.9194 16.136C59.3754 16.136 58.8741 16.232 58.4154 16.424C57.9621 16.6107 57.5701 16.88 57.2394 17.232C56.9141 17.584 56.6581 18.0133 56.4714 18.52C56.2901 19.0213 56.1994 19.5867 56.1994 20.216C56.1994 20.8667 56.2901 21.4453 56.4714 21.952C56.6581 22.4587 56.9088 22.8853 57.2234 23.232C57.5381 23.5787 57.9088 23.8453 58.3354 24.032C58.7621 24.2133 59.2208 24.304 59.7114 24.304C60.0048 24.304 60.2688 24.288 60.5034 24.256C60.7434 24.224 60.9621 24.1733 61.1594 24.104C61.3621 24.0347 61.5514 23.9467 61.7274 23.84C61.9088 23.728 62.0874 23.592 62.2634 23.432C62.3168 23.384 62.3728 23.3467 62.4314 23.32C62.4901 23.288 62.5541 23.272 62.6234 23.272ZM65.2938 26V14.112H67.2698V18.68C67.5898 18.376 67.9418 18.1307 68.3258 17.944C68.7098 17.7573 69.1605 17.664 69.6778 17.664C70.1258 17.664 70.5231 17.7413 70.8698 17.896C71.2165 18.0453 71.5045 18.2587 71.7338 18.536C71.9685 18.808 72.1445 19.136 72.2618 19.52C72.3845 19.8987 72.4458 20.3173 72.4458 20.776V26H70.4698V20.776C70.4698 20.2747 70.3525 19.888 70.1178 19.616C69.8885 19.3387 69.5418 19.2 69.0778 19.2C68.7365 19.2 68.4165 19.2773 68.1178 19.432C67.8191 19.5867 67.5365 19.7973 67.2698 20.064V26H65.2938ZM80.8195 26H79.9315C79.7449 26 79.5982 25.9733 79.4915 25.92C79.3849 25.8613 79.3049 25.7467 79.2515 25.576L79.0755 24.992C78.8675 25.1787 78.6622 25.344 78.4595 25.488C78.2622 25.6267 78.0569 25.744 77.8435 25.84C77.6302 25.936 77.4035 26.008 77.1635 26.056C76.9235 26.104 76.6569 26.128 76.3635 26.128C76.0169 26.128 75.6969 26.0827 75.4035 25.992C75.1102 25.896 74.8569 25.7547 74.6435 25.568C74.4355 25.3813 74.2729 25.1493 74.1555 24.872C74.0382 24.5947 73.9795 24.272 73.9795 23.904C73.9795 23.5947 74.0595 23.2907 74.2195 22.992C74.3849 22.688 74.6569 22.416 75.0355 22.176C75.4142 21.9307 75.9182 21.728 76.5475 21.568C77.1769 21.408 77.9582 21.3173 78.8915 21.296V20.816C78.8915 20.2667 78.7742 19.8613 78.5395 19.6C78.3102 19.3333 77.9742 19.2 77.5315 19.2C77.2115 19.2 76.9449 19.2373 76.7315 19.312C76.5182 19.3867 76.3315 19.472 76.1715 19.568C76.0169 19.6587 75.8729 19.7413 75.7395 19.816C75.6062 19.8907 75.4595 19.928 75.2995 19.928C75.1662 19.928 75.0515 19.8933 74.9555 19.824C74.8595 19.7547 74.7822 19.6693 74.7235 19.568L74.3635 18.936C75.3075 18.072 76.4462 17.64 77.7795 17.64C78.2595 17.64 78.6862 17.72 79.0595 17.88C79.4382 18.0347 79.7582 18.2533 80.0195 18.536C80.2809 18.8133 80.4782 19.1467 80.6115 19.536C80.7502 19.9253 80.8195 20.352 80.8195 20.816V26ZM76.9795 24.768C77.1822 24.768 77.3689 24.7493 77.5395 24.712C77.7102 24.6747 77.8702 24.6187 78.0195 24.544C78.1742 24.4693 78.3209 24.3787 78.4595 24.272C78.6035 24.16 78.7475 24.0293 78.8915 23.88V22.496C78.3155 22.5227 77.8329 22.5733 77.4435 22.648C77.0595 22.7173 76.7502 22.808 76.5155 22.92C76.2809 23.032 76.1129 23.1627 76.0115 23.312C75.9155 23.4613 75.8675 23.624 75.8675 23.8C75.8675 24.1467 75.9689 24.3947 76.1715 24.544C76.3795 24.6933 76.6489 24.768 76.9795 24.768ZM85.4585 26.128C84.7492 26.128 84.2025 25.928 83.8185 25.528C83.4345 25.1227 83.2425 24.5653 83.2425 23.856V19.272H82.4105C82.3039 19.272 82.2105 19.2373 82.1305 19.168C82.0559 19.0987 82.0185 18.9947 82.0185 18.856V18.072L83.3385 17.856L83.7545 15.616C83.7759 15.5093 83.8239 15.4267 83.8985 15.368C83.9785 15.3093 84.0772 15.28 84.1945 15.28H85.2185V17.864H87.3785V19.272H85.2185V23.72C85.2185 23.976 85.2825 24.176 85.4105 24.32C85.5385 24.464 85.7092 24.536 85.9225 24.536C86.0452 24.536 86.1465 24.5227 86.2265 24.496C86.3119 24.464 86.3839 24.432 86.4425 24.4C86.5065 24.368 86.5625 24.3387 86.6105 24.312C86.6585 24.28 86.7065 24.264 86.7545 24.264C86.8132 24.264 86.8612 24.28 86.8985 24.312C86.9359 24.3387 86.9759 24.3813 87.0185 24.44L87.6105 25.4C87.3225 25.64 86.9919 25.8213 86.6185 25.944C86.2452 26.0667 85.8585 26.128 85.4585 26.128ZM93.2838 14.432C93.3798 14.432 93.4598 14.4373 93.5238 14.448C93.5878 14.4533 93.6438 14.4693 93.6918 14.496C93.7451 14.5173 93.7958 14.552 93.8438 14.6C93.8918 14.6427 93.9451 14.7013 94.0038 14.776L100.076 22.512C100.054 22.3253 100.038 22.144 100.028 21.968C100.022 21.7867 100.02 21.6187 100.02 21.464V14.432H101.916V26H100.804C100.633 26 100.492 25.9733 100.38 25.92C100.268 25.8667 100.158 25.7707 100.052 25.632L94.0038 17.928C94.0198 18.0987 94.0305 18.2693 94.0358 18.44C94.0465 18.6053 94.0518 18.7573 94.0518 18.896V26H92.1558V14.432H93.2838ZM107.642 17.664C108.255 17.664 108.81 17.7627 109.306 17.96C109.807 18.1573 110.234 18.4373 110.586 18.8C110.938 19.1627 111.21 19.6053 111.402 20.128C111.594 20.6507 111.69 21.2347 111.69 21.88C111.69 22.5307 111.594 23.1173 111.402 23.64C111.21 24.1627 110.938 24.608 110.586 24.976C110.234 25.344 109.807 25.6267 109.306 25.824C108.81 26.0213 108.255 26.12 107.642 26.12C107.028 26.12 106.471 26.0213 105.97 25.824C105.468 25.6267 105.039 25.344 104.682 24.976C104.33 24.608 104.055 24.1627 103.858 23.64C103.666 23.1173 103.57 22.5307 103.57 21.88C103.57 21.2347 103.666 20.6507 103.858 20.128C104.055 19.6053 104.33 19.1627 104.682 18.8C105.039 18.4373 105.468 18.1573 105.97 17.96C106.471 17.7627 107.028 17.664 107.642 17.664ZM107.642 24.6C108.324 24.6 108.828 24.3707 109.154 23.912C109.484 23.4533 109.65 22.7813 109.65 21.896C109.65 21.0107 109.484 20.336 109.154 19.872C108.828 19.408 108.324 19.176 107.642 19.176C106.948 19.176 106.436 19.4107 106.106 19.88C105.775 20.344 105.61 21.016 105.61 21.896C105.61 22.776 105.775 23.448 106.106 23.912C106.436 24.3707 106.948 24.6 107.642 24.6ZM112.231 17.792H113.799C113.949 17.792 114.074 17.8267 114.175 17.896C114.277 17.9653 114.341 18.0533 114.367 18.16L115.543 22.544C115.607 22.784 115.658 23.0187 115.695 23.248C115.738 23.4773 115.778 23.7067 115.815 23.936C115.874 23.7067 115.935 23.4773 115.999 23.248C116.069 23.0187 116.141 22.784 116.215 22.544L117.575 18.144C117.607 18.0373 117.671 17.9493 117.767 17.88C117.863 17.8107 117.975 17.776 118.103 17.776H118.975C119.119 17.776 119.239 17.8107 119.335 17.88C119.431 17.9493 119.495 18.0373 119.527 18.144L120.871 22.624C120.941 22.8533 121.002 23.0773 121.055 23.296C121.114 23.5093 121.17 23.7253 121.223 23.944C121.261 23.7147 121.301 23.4853 121.343 23.256C121.391 23.0267 121.45 22.7893 121.519 22.544L122.735 18.16C122.762 18.0533 122.826 17.9653 122.927 17.896C123.029 17.8267 123.146 17.792 123.279 17.792H124.775L122.175 26H120.583C120.413 26 120.29 25.8827 120.215 25.648L118.735 20.904C118.687 20.7493 118.642 20.5947 118.599 20.44C118.562 20.28 118.53 20.1227 118.503 19.968C118.471 20.128 118.437 20.288 118.399 20.448C118.362 20.6027 118.319 20.76 118.271 20.92L116.775 25.648C116.701 25.8827 116.557 26 116.343 26H114.831L112.231 17.792Z" fill="white"/>
<defs>
<clipPath id="clip0_6879_31924">
<rect width="25.335" height="20.332" fill="white" transform="translate(22.8325 9.33398)"/>
</clipPath>
</defs>
</svg>
