<?xml version="1.0" encoding="utf-8"?>
<!-- Generator: Adobe Illustrator 25.2.1, SVG Export Plug-In . SVG Version: 6.00 Build 0)  -->
<svg version="1.1" id="Layer_1" xmlns="http://www.w3.org/2000/svg" xmlns:xlink="http://www.w3.org/1999/xlink" x="0px" y="0px"
	 viewBox="0 0 16.3 17.1" style="enable-background:new 0 0 16.3 17.1;" xml:space="preserve">
<path d="M6.3,15.5c-0.4,0-0.8-0.4-0.8-0.8s0.4-0.8,0.8-0.8c0.4,0,0.8,0.4,0.8,0.8C7.1,15.1,6.7,15.5,6.3,15.5z M6.3,12.6
	c-1.1,0-2,0.9-2,2s0.9,2,2,2s2-0.9,2-2S7.4,12.6,6.3,12.6z"/>
<path d="M12.2,15.5c-0.4,0-0.8-0.4-0.8-0.8s0.4-0.8,0.8-0.8c0.4,0,0.8,0.4,0.8,0.8C13,15.1,12.7,15.5,12.2,15.5z M12.2,12.6
	c-1.1,0-2,0.9-2,2s0.9,2,2,2c1.1,0,2-0.9,2-2S13.3,12.6,12.2,12.6z"/>
<path d="M13.4,10.5H5.9l-1-4.9h9.6L13.4,10.5z M15.7,4.6c-0.1-0.1-0.3-0.2-0.5-0.2H4.6L4.1,1.6c0-0.2-0.2-0.4-0.5-0.5L1.2,0.7
	C0.9,0.6,0.5,0.8,0.5,1.2S0.6,1.8,1,1.9l2,0.4l1.8,9c0.1,0.3,0.3,0.5,0.6,0.5h8.5c0.3,0,0.5-0.2,0.6-0.5l1.4-6.1
	C15.9,5,15.8,4.8,15.7,4.6z"/>
</svg>
