<svg id="Group_26200" data-name="Group 26200" xmlns="http://www.w3.org/2000/svg" xmlns:xlink="http://www.w3.org/1999/xlink" width="80" height="79.999" viewBox="0 0 80 79.999">
  <defs>
    <clipPath id="clip-path">
      <rect id="Rectangle_10538" data-name="Rectangle 10538" width="80" height="80" fill="#7a126b"/>
    </clipPath>
  </defs>
  <g id="Group_26199" data-name="Group 26199" clip-path="url(#clip-path)">
    <path id="Path_35239" data-name="Path 35239" d="M40,2.5A37.481,37.481,0,1,1,2.518,39.982,37.481,37.481,0,0,1,40,2.5M40,0A40,40,0,1,0,80,40,40,40,0,0,0,40,0" fill="#7a126b"/>
    <path id="Path_35240" data-name="Path 35240" d="M77.535,73.136a1.064,1.064,0,0,1-.986-.664L74.4,67.186a1.066,1.066,0,0,1,1.975-.8l2.148,5.286a1.066,1.066,0,0,1-.986,1.467ZM85,68.177a1.064,1.064,0,0,1-.754-.312L80.216,63.83a1.066,1.066,0,0,1,1.507-1.507l4.033,4.036A1.065,1.065,0,0,1,85,68.177m4.848-7.2a1.1,1.1,0,0,1-.415-.083l-5.258-2.219a1.065,1.065,0,1,1,.83-1.962l5.258,2.219a1.066,1.066,0,0,1-.415,2.048Zm1.776-8.788H85.923a1.067,1.067,0,0,1,0-2.133h5.706a1.067,1.067,0,0,1,0,2.133m-6.951-6.37a1.066,1.066,0,0,1-.4-2.053l5.286-2.149a1.066,1.066,0,1,1,.8,1.975L85.08,45.741a1.073,1.073,0,0,1-.4.078ZM57.06,40.233a1.059,1.059,0,0,1-.754-.312l-4.033-4.038a1.066,1.066,0,1,1,1.507-1.507l4.033,4.038a1.065,1.065,0,0,1-.753,1.819m23.911,0a1.065,1.065,0,0,1-.753-1.819l4.033-4.038a1.066,1.066,0,1,1,1.507,1.507l-4.033,4.038a1.063,1.063,0,0,1-.754.312m-5.384-3.62a1.1,1.1,0,0,1-.415-.083,1.07,1.07,0,0,1-.568-1.4l2.219-5.258a1.067,1.067,0,0,1,1.968.828l-2.219,5.258a1.07,1.07,0,0,1-.984.652m-12.939-.086a1.063,1.063,0,0,1-.986-.664l-2.149-5.286a1.066,1.066,0,1,1,1.975-.8l2.149,5.286a1.064,1.064,0,0,1-.986,1.467Zm6.368-1.245a1.065,1.065,0,0,1-1.064-1.067v-5.7a1.064,1.064,0,1,1,2.128,0v5.7a1.065,1.065,0,0,1-1.064,1.067" transform="translate(-26.354 -13.92)" fill="#7a126b"/>
    <path id="Path_35241" data-name="Path 35241" d="M51.444,91.811a3.081,3.081,0,0,1-1.338-.272c-5.369-1.8-10.9-6.763-16.3-14.705-.154-.224-.262-.387-.33-.478l-.249-.362c-5.462-7.807-8.214-15.012-7.955-20.839-.018-.081-.123-2.111,2.569-3.734,1.628-1.047,4.584-2.8,6.013-2.67a2.922,2.922,0,0,1,2.476,1.829l3.157,7.395A3.518,3.518,0,0,1,39,61.94l-2.491,3.022a63.679,63.679,0,0,0,3.915,6.388c.015.017.03.035.045.055a.615.615,0,0,1,.058.086c.023.033.043.065.063.1a63.587,63.587,0,0,0,4.566,6l3.716-1.233a3.524,3.524,0,0,1,3.877.974l5.734,5.59a2.94,2.94,0,0,1,.84,2.994c-.42,1.378-3.1,3.5-4.687,4.659a5.193,5.193,0,0,1-3.187,1.24ZM33.77,50.88c-.664,0-2.853,1.1-4.805,2.35-1.557.938-1.565,1.872-1.565,1.912-.232,5.381,2.458,12.315,7.572,19.629l.254.367c.04.053.169.239.342.5,6.393,9.4,11.877,12.771,15.352,13.941.136.053,1.014.387,2.428-.707A17.6,17.6,0,0,0,57.273,85.3c.045-.153.106-.455-.309-.886L51.207,78.8a1.133,1.133,0,0,1-.093-.1,1.407,1.407,0,0,0-1.58-.325l-4.393,1.457A1.064,1.064,0,0,1,44,79.521a69.033,69.033,0,0,1-5.238-6.828s0,0,0,0a69.14,69.14,0,0,1-4.479-7.359,1.063,1.063,0,0,1,.121-1.175l2.944-3.572a1.393,1.393,0,0,0,.264-1.59l-3.23-7.545c-.239-.511-.544-.564-.6-.569H33.77Z" transform="translate(-12.81 -24.723)" fill="#7a126b"/>
  </g>
</svg>
