<svg id="Layer_2" data-name="Layer 2" xmlns="http://www.w3.org/2000/svg" width="115" height="115" viewBox="0 0 115 115">
  <g id="Isolation_Mode" data-name="Isolation Mode" transform="translate(0 0)">
    <g id="Group_23111" data-name="Group 23111">
      <g id="Bounding_Shape-Circle" data-name="Bounding Shape-Circle">
        <path id="Path_28830" data-name="Path 28830" d="M57.5,3.6A53.873,53.873,0,1,1,3.627,57.468h0A53.925,53.925,0,0,1,57.5,3.6m0-3.6A57.5,57.5,0,1,0,115,57.5,57.493,57.493,0,0,0,57.5,0Z" fill="#294e95"/>
      </g>
      <path id="Path_33831" data-name="Path 33831" d="M1730.246,283.443a25.828,25.828,0,0,1-.245,38.509,8.663,8.663,0,0,0,1.039-.207c9.387-3.351,16.757-9.148,21.682-17.9.313-.556.563-1.147.85-1.718a1.659,1.659,0,0,1,2.236-1.013,1.559,1.559,0,0,1,.7,2.331,66.39,66.39,0,0,1-5.358,8.335c-7.448,8.971-17.3,13.641-28.68,15.386a57.563,57.563,0,0,1-26.53-1.961,42.338,42.338,0,0,1-24.628-19.611,5.008,5.008,0,0,1,.084-5.921,46.641,46.641,0,0,1,30.595-21.134,50.15,50.15,0,0,1,13.8-1.231c9.24.621,17.958,2.9,25.753,8.1a47.4,47.4,0,0,1,9.982,8.911c.878,1.044.911,1.93.133,2.633-.815.736-1.686.564-2.641-.562a43.592,43.592,0,0,0-17.666-12.607C1731.1,283.685,1730.833,283.622,1730.246,283.443ZM1696.865,322a25.492,25.492,0,0,1-8.822-19c-.119-7.639,2.808-14.067,8.544-19.491a6.889,6.889,0,0,0-.706.154,42.562,42.562,0,0,0-22.011,18.373,1.836,1.836,0,0,0,.1,1.5,36.737,36.737,0,0,0,12.11,13.362A37.152,37.152,0,0,0,1696.865,322Zm27.9-14.514V297.7H1715.1v9.783Zm-13.048-9.869c-3.069,0-5.977-.024-8.884.04-.271.006-.745.561-.759.877-.1,2.267-.192,4.541-.124,6.808.066,2.214.15,2.211,2.325,2.211h7.442Zm3.415-16.776v13.418h8.9C1722.85,287.284,1718.592,281.353,1715.129,280.837ZM1724,310.922h-8.86v13.431C1718.914,323.6,1723.01,317.343,1724,310.922Zm-12.3-16.628V280.825c-4.52.833-8.524,9.143-8.8,13.469Zm-.023,30.006V310.931H1702.8C1703.806,317.081,1707.888,323.751,1711.674,324.3Zm-12.985-26.686c-2.107,0-4.214-.02-6.32.029-.225.005-.583.385-.639.643a19.954,19.954,0,0,0,0,8.552c.058.267.4.671.614.676,2.139.051,4.279.031,6.348.031Zm29.43,9.93c2.121,0,4.229.025,6.336-.035.243-.007.625-.459.684-.756a21.163,21.163,0,0,0,.006-8.325c-.057-.291-.358-.757-.555-.761-2.178-.055-4.358-.034-6.472-.034Zm5.853-13.195a22.292,22.292,0,0,0-10.965-11.73c-.071.148-.11.195-.1.211a32.184,32.184,0,0,1,4.44,10.908,1.09,1.09,0,0,0,.836.584C1730.015,294.376,1731.85,294.349,1733.971,294.349Zm-29.828-11.742c-4.538,1.6-10.467,7.978-11.07,11.74,1.883,0,3.755.027,5.624-.03a1.062,1.062,0,0,0,.768-.639A31.765,31.765,0,0,1,1704.143,282.608Zm-11.161,28.263c1.6,4.777,6.779,10.211,10.891,11.569-.894-1.8-1.925-3.595-2.69-5.5-.783-1.947-1.307-4-1.966-6.073Zm29.788,11.563c4.178-1.173,10.572-8.042,10.95-11.617-1.876,0-3.745-.027-5.613.03a1.066,1.066,0,0,0-.776.643A30.71,30.71,0,0,1,1722.77,322.434Z" transform="translate(-1656.08 -245.05)" fill="#294e95"/>
    </g>
  </g>
</svg>
