<svg xmlns="http://www.w3.org/2000/svg" width="33.981" height="33.984" viewBox="0 0 33.981 33.984">
  <g id="Icons" transform="translate(0)">
    <path id="Path_35201" data-name="Path 35201" d="M131.144,106.669v1.789h-1.789v-1.789h1.789m1.789-1.789H127.57v5.363h5.363Z" transform="translate(-98.952 -83.417)" fill="#7a126b"/>
    <path id="Path_35202" data-name="Path 35202" d="M131.144,83.989v1.789h-1.789V83.989h1.789m1.789-1.789H127.57v5.363h5.363Z" transform="translate(-98.952 -67.893)" fill="#7a126b"/>
    <path id="Path_35203" data-name="Path 35203" d="M108.464,83.989v1.789h-1.789V83.989h1.789m1.789-1.789H104.89v5.363h5.363Z" transform="translate(-83.427 -67.893)" fill="#7a126b"/>
    <path id="Path_35204" data-name="Path 35204" d="M85.785,83.989v1.789H84V83.989h1.789M87.573,82.2H82.21v5.363h5.363Z" transform="translate(-67.902 -67.893)" fill="#7a126b"/>
    <path id="Path_35205" data-name="Path 35205" d="M63.114,83.989v1.789H61.326V83.989h1.789M64.9,82.2H59.54v5.363H64.9Z" transform="translate(-52.384 -67.893)" fill="#7a126b"/>
    <path id="Path_35206" data-name="Path 35206" d="M40.434,83.989v1.789H38.646V83.989h1.789M42.223,82.2H36.86v5.363h5.363Z" transform="translate(-36.86 -67.893)" fill="#7a126b"/>
    <path id="Path_35207" data-name="Path 35207" d="M40.434,106.669v1.789H38.646v-1.789h1.789m1.789-1.789H36.86v5.363h5.363Z" transform="translate(-36.86 -83.417)" fill="#7a126b"/>
    <path id="Path_35208" data-name="Path 35208" d="M131.144,61.319v1.789h-1.789V61.319h1.789m1.789-1.789H127.57v5.363h5.363Z" transform="translate(-98.952 -52.375)" fill="#7a126b"/>
    <path id="Path_35209" data-name="Path 35209" d="M108.464,61.319v1.789h-1.789V61.319h1.789m1.789-1.789H104.89v5.363h5.363Z" transform="translate(-83.427 -52.375)" fill="#7a126b"/>
    <path id="Path_35210" data-name="Path 35210" d="M85.785,61.319v1.789H84V61.319h1.789m1.789-1.789H82.21v5.363h5.363Z" transform="translate(-67.902 -52.375)" fill="#7a126b"/>
    <path id="Path_35211" data-name="Path 35211" d="M63.114,61.319v1.789H61.326V61.319h1.789M64.9,59.53H59.54v5.363H64.9Z" transform="translate(-52.384 -52.375)" fill="#7a126b"/>
    <path id="Path_35212" data-name="Path 35212" d="M40.434,61.319v1.789H38.646V61.319h1.789m1.789-1.789H36.86v5.363h5.363Z" transform="translate(-36.86 -52.375)" fill="#7a126b"/>
    <path id="Path_35213" data-name="Path 35213" d="M77.415,106.669v1.789H61.325v-1.789h16.09M79.2,104.88H59.53v5.363H79.2Z" transform="translate(-52.377 -83.417)" fill="#7a126b"/>
    <rect id="Rectangle_10516" data-name="Rectangle 10516" width="1.789" height="5.366" transform="translate(16.093 0)" fill="#7a126b"/>
    <rect id="Rectangle_10517" data-name="Rectangle 10517" width="1.789" height="5.366" transform="translate(3.575 1.573) rotate(-45)" fill="#7a126b"/>
    <rect id="Rectangle_10518" data-name="Rectangle 10518" width="1.789" height="5.366" transform="translate(26.608 5.363) rotate(-135)" fill="#7a126b"/>
    <rect id="Rectangle_10519" data-name="Rectangle 10519" width="1.789" height="5.366" transform="translate(17.885 33.985) rotate(180)" fill="#7a126b"/>
    <rect id="Rectangle_10520" data-name="Rectangle 10520" width="1.789" height="5.366" transform="translate(30.405 32.415) rotate(135)" fill="#7a126b"/>
    <rect id="Rectangle_10521" data-name="Rectangle 10521" width="1.789" height="5.366" transform="translate(7.369 28.618) rotate(45)" fill="#7a126b"/>
  </g>
</svg>
