<svg id="energy" xmlns="http://www.w3.org/2000/svg" xmlns:xlink="http://www.w3.org/1999/xlink" width="92.844" height="95" viewBox="0 0 92.844 95">
  <defs>
    <clipPath id="clip-path">
      <rect id="Rectangle_10535" data-name="Rectangle 10535" width="92.843" height="95" fill="none"/>
    </clipPath>
  </defs>
  <rect id="Rectangle_10533" data-name="Rectangle 10533" width="88.488" height="19.776" transform="translate(2.177 73.046)" fill="#00a1ed"/>
  <rect id="Rectangle_10534" data-name="Rectangle 10534" width="92.844" height="73.047" fill="#fff"/>
  <g id="Group_26184" data-name="Group 26184">
    <g id="Group_26183" data-name="Group 26183" clip-path="url(#clip-path)">
      <path id="Path_35223" data-name="Path 35223" d="M51.21,15.153a54.506,54.506,0,0,1,44.248,22.7V6.975H6.973V37.84A54.491,54.491,0,0,1,51.21,15.153" transform="translate(-4.793 -4.794)" fill="#00a1ed"/>
      <path id="Path_35224" data-name="Path 35224" d="M51.21,40.11A53.187,53.187,0,0,0,6.973,63.794V98.435H95.458V63.806A53.194,53.194,0,0,0,51.21,40.11" transform="translate(-4.793 -27.571)" fill="#00a1ed"/>
      <path id="Path_35225" data-name="Path 35225" d="M51.21,35.315a53.194,53.194,0,0,1,44.248,23.7V55.832a54.475,54.475,0,0,0-88.485-.011V59A53.187,53.187,0,0,1,51.21,35.315" transform="translate(-4.793 -22.776)" fill="#fff"/>
      <path id="Path_35226" data-name="Path 35226" d="M18.385,135.617a7.756,7.756,0,0,0-.436,1.033,9.5,9.5,0,0,1-6.083.051.7.7,0,0,0-.912.37.688.688,0,0,0,.365.912,10.568,10.568,0,0,0,6.311.2c0,.046-.009.1-.009.144a2.4,2.4,0,0,0,1.007,2.11c1.6,1.042,5.115.153,10.219-5.057a19.708,19.708,0,0,0-.815,3.039.867.867,0,0,0-.011.136.713.713,0,0,0,.446.667c.551.224.868-.234,1.148-.635l.707-1.054c.613-.922,1.991-3,2.925-4.081a10.441,10.441,0,0,0-.228,1.906,2.2,2.2,0,0,0,.905,2.058c.584.338,1.52.459,3.549-.75a1.376,1.376,0,0,0,.711.785c1.3.6,3.737-.7,6.286-3.136a15.019,15.019,0,0,0-.675,1.682,1,1,0,0,0-.023.21.719.719,0,0,0,.422.661c.56.247.916-.244,1.2-.645l.768-1.11a41.389,41.389,0,0,1,3.011-4.06,3.742,3.742,0,0,0,1.552,1.9,3.617,3.617,0,0,0-.363,1.414,1.248,1.248,0,0,0,.548,1.1c.655.446,1.65.2,2.687-.363-3.31,3.285-4.833,6.557-4.881,8.01,0,.027,0,.056,0,.083a1.273,1.273,0,0,0,.643,1.256c.5.252,1.116.1,1.828-.468,2.493-1.981,4.308-6.679,5.236-9.555a27.84,27.84,0,0,1,4.372-2.9,5.551,5.551,0,0,0-.85,2.582,2.145,2.145,0,0,0,.115.718,1.326,1.326,0,0,0,1.129.89c1.15.126,2.741-1.079,4.617-3.394-.16.46-.32.907-.477,1.345-5.21,4.1-7.552,8.494-7.852,10.875a3.928,3.928,0,0,0-.04.538,1.658,1.658,0,0,0,.734,1.588c.4.225,1.07.333,2.06-.424,1.1-.841,3.731-4.96,6.276-11.746a40.982,40.982,0,0,1,14.172-6.782.7.7,0,0,0,.514-.676.745.745,0,0,0-.026-.183.7.7,0,0,0-.864-.487A43.782,43.782,0,0,0,67.328,132.2c.4-1.178.792-2.423,1.175-3.733a.7.7,0,0,0-1.258-.57c-3.472,5.452-5.438,6.442-5.872,6.433a.453.453,0,0,1-.043-.213c0-.622.533-2.175,2.251-3.995a.687.687,0,0,0,.064-.877A.7.7,0,0,0,62.8,129a30.231,30.231,0,0,0-5.724,3.189c.017-.066.032-.118.036-.14a.818.818,0,0,0,.026-.169.7.7,0,0,0-.379-.616c-.014-.005-.024-.005-.037-.011.48-.377.974-.793,1.494-1.272a1.812,1.812,0,0,0,.688-1.316,1.192,1.192,0,0,0-.06-.373A1.389,1.389,0,0,0,57.6,127.4c-1.542-.18-3.983,1.126-6.171,4.346a2.978,2.978,0,0,1-1.174-1.819l-.054-.178a.676.676,0,0,0-.665-.474c-.471.005-.98.331-1.775,1.265a.417.417,0,0,1,.035-.064.721.721,0,0,0,.064-.3.7.7,0,0,0-1.255-.418c-3.889,5.237-7.293,6.692-7.826,6.427a.517.517,0,0,1-.016-.143,1.613,1.613,0,0,1,.028-.247c.87-.622,1.9-1.434,3.111-2.491a3.2,3.2,0,0,0,1.385-2.291,1.4,1.4,0,0,0-.1-.536,1.374,1.374,0,0,0-1.458-.779c-1.443.125-3.247,1.814-4.154,5.25-2.254,1.539-2.863,1.305-2.945,1.258-.307-.176-.282-1.142.068-2.867.153-.767.224-1.115.052-1.434a.942.942,0,0,0-.8-.515c-.732-.036-1.563.732-3.288,3.171a23.255,23.255,0,0,1,1.363-2.757.7.7,0,0,0-1.137-.8c-6.133,7.486-10.3,9.043-11.493,8.268a1.043,1.043,0,0,1-.378-.926,3.151,3.151,0,0,1,.072-.6,20.631,20.631,0,0,0,7.763-5.269c1.659-1.7,2.549-3.287,2.549-4.5a2.024,2.024,0,0,0-.135-.753,1.671,1.671,0,0,0-1.551-1.048c-2.2-.1-5.939,2.774-9.325,9.437m9.259-8.042c.259.013.3.114.321.163a.778.778,0,0,1,.037.243c0,.607-.532,1.862-2.155,3.522a20.478,20.478,0,0,1-6.065,4.449c3.225-6.207,6.52-8.44,7.861-8.377m13.753,3.66a1.051,1.051,0,0,1,.485-.148,2.527,2.527,0,0,1-.895,1.165c-.508.438-.976.833-1.406,1.182a4.633,4.633,0,0,1,1.816-2.2m15.478-2.4a1.548,1.548,0,0,1,.541-.046,1.1,1.1,0,0,1-.154.169,12.5,12.5,0,0,1-4.13,2.8c1.749-2.27,3.264-2.808,3.742-2.922m-2.1,3.729a6.555,6.555,0,0,1-3.015,1.747,2.857,2.857,0,0,1,.335-1,5.332,5.332,0,0,0,2.68-.748m-.541,3.861c-.949,2.441-2.294,5.179-3.914,6.462-.08.063-.147.113-.2.153.073-1.009,1.306-3.718,4.118-6.616m4.6,8.65a4.884,4.884,0,0,1,.333-1.572,19.2,19.2,0,0,1,5.085-7.093c-2.137,5.129-4.138,8.161-4.872,8.73a1.771,1.771,0,0,1-.5.287.929.929,0,0,1-.049-.352" transform="translate(-7.49 -86.731)" fill="#fff"/>
      <path id="Path_35227" data-name="Path 35227" d="M188.735,80.872a1.047,1.047,0,0,0-.976.665s-3.83,9.824-4.269,10.946c-1.2.066-11.678.618-11.678.618a1.048,1.048,0,0,0-.991,1.042c0,.018,0,.037,0,.056a1.047,1.047,0,0,0,1.1.989l12.35-.655a1.048,1.048,0,0,0,.919-.663s2.338-6.009,3.539-9.081c1.194,3.067,3.523,9.045,3.523,9.045a1.045,1.045,0,0,0,.91.663s6.377.365,9.637.554c-2.513,2.086-7.443,6.186-7.443,6.186a1.032,1.032,0,0,0-.381.8,1.056,1.056,0,0,0,.032.259s1.583,6.187,2.4,9.358l-8.094-5.222a1.047,1.047,0,0,0-1.127-.006s-5.407,3.444-8.208,5.224c.855-3.08,2.389-8.625,2.389-8.625a1.345,1.345,0,0,0,.034-.278,1.045,1.045,0,0,0-2.053-.276l-3.107,11.242a1.042,1.042,0,0,0,.385,1.116,1.055,1.055,0,0,0,1.185.04l9.93-6.321c1,.65,9.773,6.3,9.773,6.3a1.045,1.045,0,0,0,1.614-.875,1.033,1.033,0,0,0-.036-.259s-2.6-10.154-2.9-11.3c.907-.757,8.976-7.458,8.976-7.458a1.052,1.052,0,0,0,.378-.8,1,1,0,0,0-.055-.326,1.037,1.037,0,0,0-.93-.716s-10.412-.6-11.611-.668c-.439-1.117-4.251-10.914-4.251-10.914a1.042,1.042,0,0,0-.971-.665" transform="translate(-117.418 -55.59)" fill="#fff"/>
      <path id="Path_35228" data-name="Path 35228" d="M90.666,233.658v19.776H2.177V233.658H0v21.954H92.844V233.658Z" transform="translate(0 -160.612)" fill="#fff"/>
      <path id="Path_35229" data-name="Path 35229" d="M19.172,258.655V247.589h5.7v1.227H20.581v3.556h3.986V253.6H20.581v3.83h4.384v1.226Z" transform="translate(-13.178 -170.187)" fill="#fff"/>
      <path id="Path_35230" data-name="Path 35230" d="M50.942,247.588v11.067H49.01l-4.367-9.594h-.031v9.594H43.355V247.588h1.992l4.308,9.473h.03v-9.473Z" transform="translate(-29.801 -170.187)" fill="#fff"/>
      <path id="Path_35231" data-name="Path 35231" d="M73.882,258.655V247.589h5.7v1.227H75.292v3.556h3.986V253.6H75.292v3.83h4.384v1.226Z" transform="translate(-50.785 -170.187)" fill="#fff"/>
      <path id="Path_35232" data-name="Path 35232" d="M99.256,248.815h2.131a1.5,1.5,0,0,1,1.487,1.685c0,.968-.491,1.84-1.5,1.84H99.256Zm1.655,4.752a1.458,1.458,0,0,1,1.671,1.41c.123,1.471.032,2.913.43,3.677h1.472a16.581,16.581,0,0,1-.384-2.9c-.076-2.224-.534-2.65-1.808-2.85v-.032a2.387,2.387,0,0,0,2.023-2.528,2.5,2.5,0,0,0-2.653-2.76H97.846v11.067h1.41v-5.087Z" transform="translate(-67.257 -170.187)" fill="#fff"/>
      <path id="Path_35233" data-name="Path 35233" d="M128.414,250.043c0-1.3-.536-2.009-1.964-2.009-.444,0-2.037.076-2.037,2.392v3.74c0,2.422.705,3.034,2.037,3.034a3.517,3.517,0,0,0,1.98-.49V253.4h-2.04v-1.226h3.449v5.382a6.824,6.824,0,0,1-3.389.827c-2.344,0-3.479-1.214-3.479-4.279v-3.632c0-2.206,1.135-3.618,3.479-3.618,2.393,0,3.528.874,3.435,3.189Z" transform="translate(-84.528 -169.682)" fill="#fff"/>
      <path id="Path_35234" data-name="Path 35234" d="M153.406,247.588h1.425l-3.018,6.85v4.217H150.4v-4.217l-2.975-6.85h1.58l2.161,5.349Z" transform="translate(-101.34 -170.187)" fill="#fff"/>
      <path id="Path_35235" data-name="Path 35235" d="M183.269,254.854v.321a1.754,1.754,0,0,0,1.856,1.979c1.12,0,1.978-.476,1.978-1.794,0-2.452-4.968-2.175-4.968-5.5,0-1.961,1.4-3,3.253-3,2.023,0,3.158.981,3.064,3.236H186.98c.015-1.213-.368-2.01-1.7-2.01a1.542,1.542,0,0,0-1.7,1.625c0,2.437,4.967,2.086,4.967,5.594,0,2.33-1.611,3.083-3.436,3.083-3.265.028-3.265-2.469-3.234-3.527Z" transform="translate(-125.014 -169.682)" fill="#fff"/>
      <path id="Path_35236" data-name="Path 35236" d="M212.487,247.588v1.227h-2.912v9.839h-1.411v-9.839h-2.912v-1.227Z" transform="translate(-141.086 -170.187)" fill="#fff"/>
      <path id="Path_35237" data-name="Path 35237" d="M230.8,254.793h-3.54l1.731-5.9h.03Zm-6.145,3.861h1.424l.829-2.637h4.277l.8,2.637h1.579l-3.6-11.067h-1.794Z" transform="translate(-154.422 -170.187)" fill="#fff"/>
      <path id="Path_35238" data-name="Path 35238" d="M258.022,248.815h2.131a1.5,1.5,0,0,1,1.487,1.685c0,.968-.493,1.84-1.5,1.84h-2.115Zm1.655,4.752a1.459,1.459,0,0,1,1.672,1.41c.122,1.471.03,2.913.43,3.677h1.47a16.734,16.734,0,0,1-.381-2.9c-.076-2.224-.538-2.65-1.81-2.85v-.032a2.387,2.387,0,0,0,2.021-2.528,2.5,2.5,0,0,0-2.651-2.76h-3.816v11.067h1.411v-5.087Z" transform="translate(-176.389 -170.187)" fill="#fff"/>
    </g>
  </g>
</svg>
