<svg id="icon" xmlns="http://www.w3.org/2000/svg" width="80" height="80" viewBox="0 0 80 80">
  <g id="Isolation_Mode" data-name="Isolation Mode">
    <g id="Group_23110" data-name="Group 23110">
      <path id="Path_28827" data-name="Path 28827" d="M40,2.5A37.5,37.5,0,1,1,2.5,40,37.551,37.551,0,0,1,40,2.5M40,0A40,40,0,1,0,80,40,39.995,39.995,0,0,0,40,0Z" fill="#7a126b"/>
      <g id="Group_23109" data-name="Group 23109" transform="translate(20.226 10.737)">
        <path id="Path_28828" data-name="Path 28828" d="M49.47,16.858H42.808L32.816,6.866h0L31.161,5.19h0L29.506,6.845h0L11.135,25.2,9.48,26.85h0l1.655,1.655h0L21.127,38.5h0v6.662L22.8,46.814,51.125,18.492l-1.676-1.676ZM12.811,26.85H28.844V24.492h-13.7l2.358-2.358h6.848V19.775H19.865L31.14,8.5l9.992,9.992L22.8,36.822,12.811,26.83h0Zm10.7,15.971V39.491l.972-.972h0l18.33-18.33h0l.972-.972h3.331L23.486,42.842Z" transform="translate(-7.556 -5.19)" fill="#7a126b"/>
        <path id="Path_28829" data-name="Path 28829" d="M26.818,42.114l-5.131-7.2L12.77,37.894l2.979-8.917-7.2-5.131,9.144-2.3.559,2.3-4.2,1.034,4.469,3.207L16.494,34.17l6.1-2.027,3.186,4.469,1.055-4.2,2.276.579Z" transform="translate(-8.55 16.867)" fill="#7a126b"/>
      </g>
    </g>
  </g>
</svg>
