<svg xmlns="http://www.w3.org/2000/svg" width="115" height="115" viewBox="0 0 115 115">
  <g id="icon" transform="translate(-8.734 -8.733)">
    <g id="Layer_2" data-name="Layer 2" transform="translate(8.734 8.734)">
      <g id="Isolation_Mode" data-name="Isolation Mode">
        <g id="Group_23111" data-name="Group 23111">
          <g id="Bounding_Shape-Circle" data-name="Bounding Shape-Circle">
            <path id="Path_28830" data-name="Path 28830" d="M57.5,3.6A53.873,53.873,0,1,1,3.627,57.468h0A53.925,53.925,0,0,1,57.5,3.6m0-3.6A57.5,57.5,0,1,0,115,57.5,57.493,57.493,0,0,0,57.5,0Z" fill="#294e95"/>
          </g>
          <path id="Path_31249" data-name="Path 31249" d="M105.668,15.039a1.132,1.132,0,0,0-.418.08l-2.5.961L96.015,1.039A1.761,1.761,0,0,0,94.409,0h0L73.55.005l.013.021h-.335A2.165,2.165,0,0,0,71.6.787L59.375,15.135a1.8,1.8,0,0,0,.294,2.61L71.8,26.772a1.508,1.508,0,0,0,2.112-.308L82.057,15.54l3.879,7.083-2.519,1.159a1.267,1.267,0,0,0,.236,2.382l13.936,3.314a1.374,1.374,0,0,0,.327.037,1.417,1.417,0,0,0,1.2-.667l7.5-12.07a1.137,1.137,0,0,0-.953-1.737ZM72.46,23.929,62.02,16.158,73.478,2.7,74.961,2.7l5.614,10.349L72.46,23.927Zm24.864,2.733-9.407-2.238a1.656,1.656,0,0,0,.958-.9,3.045,3.045,0,0,0-.589-2.187L78.069,2.68H93.815L100.3,17.17c.477.993.865,1.919,1.962,1.539L97.324,26.66Z" transform="translate(-25.3 19.782)" fill="#294e95" stroke="#294e95" stroke-width="0.5"/>
          <path id="Path_31250" data-name="Path 31250" d="M167.043,146a1.2,1.2,0,0,0,.1-.412l.139-2.677,16.477-.037a1.751,1.751,0,0,0,1.6-1.044h0l8.475-19.06H193.8l.134-.305a2.171,2.171,0,0,0-.029-1.8l-8.141-17a1.8,1.8,0,0,0-2.506-.79l-13.176,7.41a1.511,1.511,0,0,0-.578,2.056l6.668,11.886-8.05.664-.035-2.773a1.267,1.267,0,0,0-2.273-.752l-8.695,11.385a1.524,1.524,0,0,0-.169.284,1.407,1.407,0,0,0,.123,1.368l7.977,11.763a1.14,1.14,0,0,0,1.976-.163Zm5.378-33.954,11.342-6.379L191.4,121.6l-.6,1.357-11.739.924-6.642-11.837Zm-12.606,21.606,5.868-7.685a1.671,1.671,0,0,0,.434,1.242,3.029,3.029,0,0,0,2.238.351l21.2-1.751-6.4,14.389-15.883.037c-1.1.032-2.1.011-2.2,1.167l-5.255-7.747Z" transform="translate(-96.983 -55.385)" fill="#294e95" stroke="#294e95" stroke-width="0.5"/>
          <path id="Path_31251" data-name="Path 31251" d="M6.481,106.038a1.148,1.148,0,0,0,.3.3l2.2,1.539L.262,121.864A1.755,1.755,0,0,0,.3,123.775h0l12.485,18.768-.816-1.491,1.017,1.745a2.169,2.169,0,0,0,1.542.932H33.508c1.033.118,1.67-.618,1.719-1.657l-.094-14.5A1.509,1.509,0,0,0,33.7,126l-13.612-.656,3.708-7.174,2.369,1.443a1.266,1.266,0,0,0,1.844-1.526l-5.035-13.409a1.6,1.6,0,0,0-.15-.294,1.413,1.413,0,0,0-1.226-.624l-14.2.519a1.137,1.137,0,0,0-.907,1.761Zm26.2,22.529-.064,12.675H15.034L13.4,138.4l5.448-10.437Zm-11.9-22.1,3.4,9.053a1.65,1.65,0,0,0-1.282-.289c-.715.2-1.143,1.049-1.486,1.711l-9.766,18.9-8.8-13.061,8.4-13.481c.557-.95,1.108-1.791.182-2.487l9.353-.343Z" transform="translate(17.868 -56.2)" fill="#294e95" stroke="#294e95" stroke-width="0.5"/>
        </g>
      </g>
    </g>
  </g>
</svg>
