<svg id="icon-services-premium-care-pc-health-circle-64" xmlns="http://www.w3.org/2000/svg" width="80" height="80" viewBox="0 0 80 80">
  <g id="icon-border-circle">
    <path id="Path_20230" data-name="Path 20230" d="M41,3.461A37.482,37.482,0,1,1,3.518,40.943,37.537,37.537,0,0,1,41,3.461M41,1A40,40,0,1,0,81,41,40,40,0,0,0,41,1Z" transform="translate(-1 -1)" fill="#7a126b"/>
  </g>
  <path id="icon_services_premium-care-pc-health_90" data-name="icon/services/premium-care-pc-health/90" d="M312.42,510.085H257.965v-2.76l5.613-5.121V476.937h6.157v2.289h-3.868v22.339h38.65V479.226h-5.252v-2.289h7.54V502.2l5.614,5.121ZM260.845,507.8h48.7l-4.322-3.943H265.167Zm27.17-20.779-2.227-.1-2.735-14.454-4.266,11.691-2.4-8-1.194,3.065h-3.415v-2.289h1.85l3.041-7.808L279,476.9l4.755-13.031,3.373,17.826,2.855-10.206,3.224,5.67h3.354v2.289h-4.686l-1.168-2.054Z" transform="translate(-244.69 -451.277)" fill="#7a126b"/>
</svg>
