<svg id="icon-product-category-speaker-48" xmlns="http://www.w3.org/2000/svg" width="36.841" height="31.072" viewBox="0 0 36.841 31.072">
  <path id="Rectangle_1443" data-name="Rectangle 1443" d="M-1.5-1.5H8.509V9.991H-1.5ZM6.385.624H.624V7.867H6.385Z" transform="translate(1.5 11.291)" fill="#7a126b"/>
  <path id="Path_20282" data-name="Path 20282" d="M65.1,73.872a1.062,1.062,0,0,1-.654-.225L51.909,63.857a1.062,1.062,0,0,1-.409-.837V53.653a1.062,1.062,0,0,1,.409-.837l12.543-9.791a1.062,1.062,0,0,1,1.715.837V72.81A1.062,1.062,0,0,1,65.1,73.872ZM53.624,62.5l10.419,8.133v-24.6L53.624,54.171Z" transform="translate(-43.614 -42.8)" fill="#7a126b"/>
  <path id="Path_20283" data-name="Path 20283" d="M95.194,72.662l-1.342-1.646A11.925,11.925,0,0,0,97,67.088a11.453,11.453,0,0,0,0-10.1,11.509,11.509,0,0,0-3.135-3.9l1.323-1.661A13.646,13.646,0,0,1,98.9,56.049a13.473,13.473,0,0,1,1.392,6A13.668,13.668,0,0,1,95.194,72.662Z" transform="translate(-63.454 -46.803)" fill="#7a126b"/>
  <path id="Path_20284" data-name="Path 20284" d="M88.459,72.2l-1.221-1.738a6.521,6.521,0,0,0,0-10.752l1.221-1.738a8.645,8.645,0,0,1,0,14.227Z" transform="translate(-60.325 -49.894)" fill="#7a126b"/>
</svg>
