<svg xmlns="http://www.w3.org/2000/svg" width="80" height="80" viewBox="0 0 80 80">
  <g id="icon" transform="translate(-173 -13739.155)">
    <g id="icon-pictogram-services-and-certifications-accidental-damage-protection" transform="translate(173 13739.155)">
      <path id="Path_33793" data-name="Path 33793" d="M40,2.5A37.5,37.5,0,1,1,2.5,40,37.544,37.544,0,0,1,40,2.5M40,0A40,40,0,1,0,80,40,40,40,0,0,0,40,0Z" fill="#7a126b"/>
      <g id="Group_26041" data-name="Group 26041" transform="translate(15.029 21.103)">
        <path id="Path_33794" data-name="Path 33794" d="M59.179,78.521H34.31V62.15H59.179ZM36.6,76.236h20.3v-11.8H36.6Z" transform="translate(-29.733 -47.739)" fill="#7a126b"/>
        <path id="Path_33795" data-name="Path 33795" d="M60.26,93.773H26.3V91.384l5.074-4.469,1.514,1.714-3.246,2.857H56.894l-3.469-3.069L54.94,86.71l5.32,4.7Z" transform="translate(-26.3 -58.264)" fill="#7a126b"/>
        <path id="Path_33796" data-name="Path 33796" d="M49.271,75.04l-1.434-1.777,2.88-2.326-3.937-2.9,5.274-4.994L53.626,64.7l-3.291,3.114,4.12,3.04Z" transform="translate(-35.077 -48.12)" fill="#7a126b"/>
        <path id="Path_33797" data-name="Path 33797" d="M93.309,79.439,77,79.393l.006-2.286,13.051.04L86.611,74.13l1.509-1.72,5.189,4.549Z" transform="translate(-48.029 -52.136)" fill="#7a126b"/>
        <path id="Path_33798" data-name="Path 33798" d="M56.3,57.847H54.01V49.87H73.021v2.286H56.3Z" transform="translate(-38.176 -42.476)" fill="#7a126b"/>
        <path id="Path_33799" data-name="Path 33799" d="M87.95,69.681H75.07V67.4H85.664V60.83H87.95Z" transform="translate(-47.201 -47.173)" fill="#7a126b"/>
        <path id="Path_33800" data-name="Path 33800" d="M99.421,55.117H85.73v-9.3H99.421ZM88.016,52.831h9.12V48.106h-9.12Z" transform="translate(-51.77 -40.74)" fill="#7a126b"/>
        <path id="Path_33801" data-name="Path 33801" d="M99.031,42.176H96.746a2.96,2.96,0,1,0-5.92,0H88.54a5.246,5.246,0,1,1,10.491,0Z" transform="translate(-52.974 -36.93)" fill="#7a126b"/>
      </g>
    </g>
  </g>
</svg>
