<svg xmlns="http://www.w3.org/2000/svg" width="32" height="32"><path d="m21.36 24.837-1.086 1.376c1.448.435 2.318 1.086 2.318 1.593 0 .869-2.607 2.173-6.518 2.173s-6.518-1.304-6.518-2.173c0-.507.869-1.086 2.318-1.593l-1.086-1.376c-1.666.652-2.825 1.593-2.825 2.898 0 2.463 4.128 3.766 8.184 3.766s8.184-1.304 8.184-3.766c-.145-1.231-1.304-2.245-2.969-2.898zM16 .5C10.133.5 5.28 5.28 5.28 11.22c0 2.535.869 4.925 2.535 6.88l7.171 8.909c.217.29.58.435 1.014.435a1.43 1.43 0 0 0 1.014-.435l7.171-8.909c1.593-1.956 2.535-4.346 2.535-6.88C26.72 5.353 21.867.5 16 .5zm6.953 16.514L16 25.561l-6.88-8.474-.073-.073a9.103 9.103 0 0 1-2.101-5.867c0-4.997 4.056-9.054 9.054-9.054s9.054 4.056 9.054 9.054c0 2.173-.724 4.273-2.101 5.867zM16 5.716c-2.969 0-5.432 2.463-5.432 5.432S13.031 16.58 16 16.58c2.969 0 5.432-2.463 5.432-5.432S18.969 5.716 16 5.716zm0 9.632c-2.318 0-4.201-1.883-4.201-4.201S13.682 6.946 16 6.946c2.318 0 4.201 1.883 4.201 4.201S18.318 15.348 16 15.348z"/></svg>