<svg width="148" height="39" viewBox="0 0 148 39" fill="none" xmlns="http://www.w3.org/2000/svg">
<rect width="148" height="39" rx="4" fill="#294E95"/>
<g clip-path="url(#clip0_6879_31925)">
<path d="M22.439 28.1191V24.8951H21.5825C21.0521 24.8951 20.5435 24.6843 20.1685 24.3093C19.7934 23.9342 19.5825 23.4255 19.5825 22.8951V17.6851C19.5825 17.1546 19.7934 16.6459 20.1685 16.2708C20.5435 15.8958 21.0521 15.6851 21.5825 15.6851H26.5308V19.2511C26.5308 19.7815 26.7416 20.2902 27.1167 20.6653C27.4918 21.0403 28.0003 21.2511 28.5308 21.2511H34.3989V22.8981C34.3989 23.4285 34.1881 23.9372 33.813 24.3123C33.4379 24.6873 32.9294 24.8981 32.3989 24.8981H25.939L22.439 28.1211V28.1191Z" stroke="white" stroke-width="1.5"/>
<path d="M36.4555 21.213H28.5305C28.0001 21.213 27.4914 21.0023 27.1163 20.6272C26.7412 20.2521 26.5305 19.7434 26.5305 19.213V12.084C26.5305 11.5536 26.7412 11.0448 27.1163 10.6698C27.4914 10.2947 28.0001 10.084 28.5305 10.084H41.4165C41.947 10.084 42.4557 10.2947 42.8307 10.6698C43.2058 11.0448 43.4165 11.5536 43.4165 12.084V19.214C43.4165 19.7444 43.2058 20.2531 42.8307 20.6282C42.4557 21.0033 41.947 21.214 41.4165 21.214H40.8535V25.444L36.4555 21.213Z" stroke="white" stroke-width="1.5"/>
<path d="M39.9846 13.1929H29.9846V14.6929H39.9846V13.1929Z" fill="white"/>
<path d="M39.9846 16.2642H29.9846V17.7642H39.9846V16.2642Z" fill="white"/>
</g>
<path d="M58.7797 23.272C58.897 23.272 58.9983 23.3173 59.0837 23.408L59.9317 24.328C59.4623 24.9093 58.8837 25.3547 58.1957 25.664C57.513 25.9733 56.6917 26.128 55.7317 26.128C54.873 26.128 54.0997 25.9813 53.4117 25.688C52.729 25.3947 52.145 24.9867 51.6597 24.464C51.1743 23.9413 50.801 23.3173 50.5397 22.592C50.2837 21.8667 50.1557 21.0747 50.1557 20.216C50.1557 19.3467 50.2997 18.552 50.5877 17.832C50.8757 17.1067 51.281 16.4827 51.8037 15.96C52.3263 15.4373 52.9503 15.032 53.6757 14.744C54.4063 14.4507 55.2117 14.304 56.0917 14.304C56.9503 14.304 57.6997 14.4427 58.3397 14.72C58.985 14.992 59.537 15.3547 59.9957 15.808L59.2757 16.808C59.233 16.872 59.177 16.928 59.1077 16.976C59.0437 17.024 58.953 17.048 58.8357 17.048C58.713 17.048 58.5877 17 58.4597 16.904C58.3317 16.808 58.169 16.704 57.9717 16.592C57.7743 16.48 57.5237 16.376 57.2197 16.28C56.921 16.184 56.5397 16.136 56.0757 16.136C55.5317 16.136 55.0303 16.232 54.5717 16.424C54.1183 16.6107 53.7263 16.88 53.3957 17.232C53.0703 17.584 52.8143 18.0133 52.6277 18.52C52.4463 19.0213 52.3557 19.5867 52.3557 20.216C52.3557 20.8667 52.4463 21.4453 52.6277 21.952C52.8143 22.4587 53.065 22.8853 53.3797 23.232C53.6943 23.5787 54.065 23.8453 54.4917 24.032C54.9183 24.2133 55.377 24.304 55.8677 24.304C56.161 24.304 56.425 24.288 56.6597 24.256C56.8997 24.224 57.1183 24.1733 57.3157 24.104C57.5183 24.0347 57.7077 23.9467 57.8837 23.84C58.065 23.728 58.2437 23.592 58.4197 23.432C58.473 23.384 58.529 23.3467 58.5877 23.32C58.6463 23.288 58.7103 23.272 58.7797 23.272ZM64.954 17.664C65.5674 17.664 66.122 17.7627 66.618 17.96C67.1194 18.1573 67.546 18.4373 67.898 18.8C68.25 19.1627 68.522 19.6053 68.714 20.128C68.906 20.6507 69.002 21.2347 69.002 21.88C69.002 22.5307 68.906 23.1173 68.714 23.64C68.522 24.1627 68.25 24.608 67.898 24.976C67.546 25.344 67.1194 25.6267 66.618 25.824C66.122 26.0213 65.5674 26.12 64.954 26.12C64.3407 26.12 63.7834 26.0213 63.282 25.824C62.7807 25.6267 62.3514 25.344 61.994 24.976C61.642 24.608 61.3674 24.1627 61.17 23.64C60.978 23.1173 60.882 22.5307 60.882 21.88C60.882 21.2347 60.978 20.6507 61.17 20.128C61.3674 19.6053 61.642 19.1627 61.994 18.8C62.3514 18.4373 62.7807 18.1573 63.282 17.96C63.7834 17.7627 64.3407 17.664 64.954 17.664ZM64.954 24.6C65.6367 24.6 66.1407 24.3707 66.466 23.912C66.7967 23.4533 66.962 22.7813 66.962 21.896C66.962 21.0107 66.7967 20.336 66.466 19.872C66.1407 19.408 65.6367 19.176 64.954 19.176C64.2607 19.176 63.7487 19.4107 63.418 19.88C63.0874 20.344 62.922 21.016 62.922 21.896C62.922 22.776 63.0874 23.448 63.418 23.912C63.7487 24.3707 64.2607 24.6 64.954 24.6ZM70.5438 26V17.792H71.7518C72.0078 17.792 72.1758 17.912 72.2558 18.152L72.3918 18.8C72.5571 18.6293 72.7305 18.4747 72.9118 18.336C73.0985 18.1973 73.2931 18.0773 73.4958 17.976C73.7038 17.8747 73.9251 17.7973 74.1598 17.744C74.3945 17.6907 74.6505 17.664 74.9278 17.664C75.3758 17.664 75.7731 17.7413 76.1198 17.896C76.4665 18.0453 76.7545 18.2587 76.9838 18.536C77.2185 18.808 77.3945 19.136 77.5118 19.52C77.6345 19.8987 77.6958 20.3173 77.6958 20.776V26H75.7198V20.776C75.7198 20.2747 75.6025 19.888 75.3678 19.616C75.1385 19.3387 74.7918 19.2 74.3278 19.2C73.9865 19.2 73.6665 19.2773 73.3678 19.432C73.0691 19.5867 72.7865 19.7973 72.5198 20.064V26H70.5438ZM82.3335 26.128C81.6242 26.128 81.0775 25.928 80.6935 25.528C80.3095 25.1227 80.1175 24.5653 80.1175 23.856V19.272H79.2855C79.1789 19.272 79.0855 19.2373 79.0055 19.168C78.9309 19.0987 78.8935 18.9947 78.8935 18.856V18.072L80.2135 17.856L80.6295 15.616C80.6509 15.5093 80.6989 15.4267 80.7735 15.368C80.8535 15.3093 80.9522 15.28 81.0695 15.28H82.0935V17.864H84.2535V19.272H82.0935V23.72C82.0935 23.976 82.1575 24.176 82.2855 24.32C82.4135 24.464 82.5842 24.536 82.7975 24.536C82.9202 24.536 83.0215 24.5227 83.1015 24.496C83.1869 24.464 83.2589 24.432 83.3175 24.4C83.3815 24.368 83.4375 24.3387 83.4855 24.312C83.5335 24.28 83.5815 24.264 83.6295 24.264C83.6882 24.264 83.7362 24.28 83.7735 24.312C83.8109 24.3387 83.8509 24.3813 83.8935 24.44L84.4855 25.4C84.1975 25.64 83.8669 25.8213 83.4935 25.944C83.1202 26.0667 82.7335 26.128 82.3335 26.128ZM92.257 26H91.369C91.1824 26 91.0357 25.9733 90.929 25.92C90.8224 25.8613 90.7424 25.7467 90.689 25.576L90.513 24.992C90.305 25.1787 90.0997 25.344 89.897 25.488C89.6997 25.6267 89.4944 25.744 89.281 25.84C89.0677 25.936 88.841 26.008 88.601 26.056C88.361 26.104 88.0944 26.128 87.801 26.128C87.4544 26.128 87.1344 26.0827 86.841 25.992C86.5477 25.896 86.2944 25.7547 86.081 25.568C85.873 25.3813 85.7104 25.1493 85.593 24.872C85.4757 24.5947 85.417 24.272 85.417 23.904C85.417 23.5947 85.497 23.2907 85.657 22.992C85.8224 22.688 86.0944 22.416 86.473 22.176C86.8517 21.9307 87.3557 21.728 87.985 21.568C88.6144 21.408 89.3957 21.3173 90.329 21.296V20.816C90.329 20.2667 90.2117 19.8613 89.977 19.6C89.7477 19.3333 89.4117 19.2 88.969 19.2C88.649 19.2 88.3824 19.2373 88.169 19.312C87.9557 19.3867 87.769 19.472 87.609 19.568C87.4544 19.6587 87.3104 19.7413 87.177 19.816C87.0437 19.8907 86.897 19.928 86.737 19.928C86.6037 19.928 86.489 19.8933 86.393 19.824C86.297 19.7547 86.2197 19.6693 86.161 19.568L85.801 18.936C86.745 18.072 87.8837 17.64 89.217 17.64C89.697 17.64 90.1237 17.72 90.497 17.88C90.8757 18.0347 91.1957 18.2533 91.457 18.536C91.7184 18.8133 91.9157 19.1467 92.049 19.536C92.1877 19.9253 92.257 20.352 92.257 20.816V26ZM88.417 24.768C88.6197 24.768 88.8064 24.7493 88.977 24.712C89.1477 24.6747 89.3077 24.6187 89.457 24.544C89.6117 24.4693 89.7584 24.3787 89.897 24.272C90.041 24.16 90.185 24.0293 90.329 23.88V22.496C89.753 22.5227 89.2704 22.5733 88.881 22.648C88.497 22.7173 88.1877 22.808 87.953 22.92C87.7184 23.032 87.5504 23.1627 87.449 23.312C87.353 23.4613 87.305 23.624 87.305 23.8C87.305 24.1467 87.4064 24.3947 87.609 24.544C87.817 24.6933 88.0864 24.768 88.417 24.768ZM99.968 19.528C99.9094 19.6027 99.8507 19.6613 99.792 19.704C99.7387 19.7467 99.6587 19.768 99.552 19.768C99.4507 19.768 99.352 19.7387 99.256 19.68C99.16 19.616 99.0454 19.5467 98.912 19.472C98.7787 19.392 98.6187 19.3227 98.432 19.264C98.2507 19.2 98.024 19.168 97.752 19.168C97.4054 19.168 97.1014 19.232 96.84 19.36C96.5787 19.4827 96.36 19.6613 96.184 19.896C96.0134 20.1307 95.8854 20.416 95.8 20.752C95.7147 21.0827 95.672 21.4587 95.672 21.88C95.672 22.3173 95.7174 22.7067 95.808 23.048C95.904 23.3893 96.04 23.6773 96.216 23.912C96.392 24.1413 96.6054 24.3173 96.856 24.44C97.1067 24.5573 97.3894 24.616 97.704 24.616C98.0187 24.616 98.272 24.5787 98.464 24.504C98.6614 24.424 98.8267 24.3387 98.96 24.248C99.0934 24.152 99.208 24.0667 99.304 23.992C99.4054 23.912 99.5174 23.872 99.64 23.872C99.8 23.872 99.92 23.9333 100 24.056L100.568 24.776C100.349 25.032 100.112 25.248 99.856 25.424C99.6 25.5947 99.3334 25.7333 99.056 25.84C98.784 25.9413 98.5014 26.0133 98.208 26.056C97.9147 26.0987 97.624 26.12 97.336 26.12C96.8294 26.12 96.352 26.0267 95.904 25.84C95.456 25.648 95.064 25.3707 94.728 25.008C94.3974 24.6453 94.1334 24.2027 93.936 23.68C93.744 23.152 93.648 22.552 93.648 21.88C93.648 21.2773 93.7334 20.72 93.904 20.208C94.08 19.6907 94.336 19.2453 94.672 18.872C95.008 18.4933 95.424 18.1973 95.92 17.984C96.416 17.7707 96.9867 17.664 97.632 17.664C98.2454 17.664 98.7814 17.7627 99.24 17.96C99.704 18.1573 100.12 18.44 100.488 18.808L99.968 19.528ZM104.521 26.128C103.812 26.128 103.265 25.928 102.881 25.528C102.497 25.1227 102.305 24.5653 102.305 23.856V19.272H101.473C101.366 19.272 101.273 19.2373 101.193 19.168C101.118 19.0987 101.081 18.9947 101.081 18.856V18.072L102.401 17.856L102.817 15.616C102.838 15.5093 102.886 15.4267 102.961 15.368C103.041 15.3093 103.14 15.28 103.257 15.28H104.281V17.864H106.441V19.272H104.281V23.72C104.281 23.976 104.345 24.176 104.473 24.32C104.601 24.464 104.772 24.536 104.985 24.536C105.108 24.536 105.209 24.5227 105.289 24.496C105.374 24.464 105.446 24.432 105.505 24.4C105.569 24.368 105.625 24.3387 105.673 24.312C105.721 24.28 105.769 24.264 105.817 24.264C105.876 24.264 105.924 24.28 105.961 24.312C105.998 24.3387 106.038 24.3813 106.081 24.44L106.673 25.4C106.385 25.64 106.054 25.8213 105.681 25.944C105.308 26.0667 104.921 26.128 104.521 26.128ZM115.874 24.264C116.29 24.264 116.661 24.1947 116.986 24.056C117.317 23.9173 117.594 23.7227 117.818 23.472C118.048 23.2213 118.221 22.9173 118.338 22.56C118.461 22.2027 118.522 21.8027 118.522 21.36V14.432H120.674V21.36C120.674 22.048 120.562 22.6853 120.338 23.272C120.12 23.8533 119.802 24.3573 119.386 24.784C118.97 25.2053 118.466 25.536 117.874 25.776C117.282 26.0107 116.616 26.128 115.874 26.128C115.133 26.128 114.466 26.0107 113.874 25.776C113.282 25.536 112.778 25.2053 112.362 24.784C111.952 24.3573 111.634 23.8533 111.41 23.272C111.192 22.6853 111.082 22.048 111.082 21.36V14.432H113.234V21.352C113.234 21.7947 113.293 22.1947 113.41 22.552C113.533 22.9093 113.706 23.216 113.93 23.472C114.154 23.7227 114.429 23.9173 114.754 24.056C115.085 24.1947 115.458 24.264 115.874 24.264ZM127.619 19.392C127.566 19.4773 127.51 19.5387 127.451 19.576C127.392 19.608 127.318 19.624 127.227 19.624C127.131 19.624 127.027 19.5973 126.915 19.544C126.808 19.4907 126.683 19.432 126.539 19.368C126.395 19.2987 126.23 19.2373 126.043 19.184C125.862 19.1307 125.646 19.104 125.395 19.104C125.006 19.104 124.699 19.1867 124.475 19.352C124.251 19.5173 124.139 19.7333 124.139 20C124.139 20.176 124.195 20.3253 124.307 20.448C124.424 20.5653 124.576 20.6693 124.763 20.76C124.955 20.8507 125.171 20.9333 125.411 21.008C125.651 21.0773 125.896 21.1547 126.147 21.24C126.398 21.3253 126.643 21.424 126.883 21.536C127.123 21.6427 127.336 21.7813 127.523 21.952C127.715 22.1173 127.867 22.3173 127.979 22.552C128.096 22.7867 128.155 23.0693 128.155 23.4C128.155 23.7947 128.083 24.16 127.939 24.496C127.795 24.8267 127.584 25.1147 127.307 25.36C127.03 25.6 126.686 25.7893 126.275 25.928C125.87 26.0613 125.403 26.128 124.875 26.128C124.592 26.128 124.315 26.1013 124.043 26.048C123.776 26 123.518 25.9307 123.267 25.84C123.022 25.7493 122.792 25.6427 122.579 25.52C122.371 25.3973 122.187 25.264 122.027 25.12L122.483 24.368C122.542 24.2773 122.611 24.208 122.691 24.16C122.771 24.112 122.872 24.088 122.995 24.088C123.118 24.088 123.232 24.1227 123.339 24.192C123.451 24.2613 123.579 24.336 123.723 24.416C123.867 24.496 124.035 24.5707 124.227 24.64C124.424 24.7093 124.672 24.744 124.971 24.744C125.206 24.744 125.406 24.7173 125.571 24.664C125.742 24.6053 125.88 24.5307 125.987 24.44C126.099 24.3493 126.179 24.2453 126.227 24.128C126.28 24.0053 126.307 23.88 126.307 23.752C126.307 23.56 126.248 23.4027 126.131 23.28C126.019 23.1573 125.867 23.0507 125.675 22.96C125.488 22.8693 125.272 22.7893 125.027 22.72C124.787 22.6453 124.539 22.5653 124.283 22.48C124.032 22.3947 123.784 22.296 123.539 22.184C123.299 22.0667 123.083 21.92 122.891 21.744C122.704 21.568 122.552 21.352 122.435 21.096C122.323 20.84 122.267 20.5307 122.267 20.168C122.267 19.832 122.334 19.512 122.467 19.208C122.6 18.904 122.795 18.64 123.051 18.416C123.312 18.1867 123.635 18.0053 124.019 17.872C124.408 17.7333 124.856 17.664 125.363 17.664C125.928 17.664 126.443 17.7573 126.907 17.944C127.371 18.1307 127.758 18.376 128.067 18.68L127.619 19.392Z" fill="white"/>
<defs>
<clipPath id="clip0_6879_31925">
<rect width="25.335" height="20.332" fill="white" transform="translate(18.8325 9.33398)"/>
</clipPath>
</defs>
</svg>
