<svg id="icon_utility_trash-can_16" data-name="icon/utility/trash-can/16" xmlns="http://www.w3.org/2000/svg" width="11.194" height="14" viewBox="0 0 11.194 14">
  <path id="Path_21494" data-name="Path 21494" d="M11.694,1.722H9.334V1.507A1.531,1.531,0,0,0,8.919.45,1.409,1.409,0,0,0,7.888,0H4.324A1.48,1.48,0,0,0,2.876,1.507v.215H.5V2.834h.861v9.659A1.489,1.489,0,0,0,2.828,14H9.365a1.489,1.489,0,0,0,1.467-1.507V2.834h.861V1.722M3.944,1.507A.561.561,0,0,1,4.559.958H7.691a.557.557,0,0,1,.406.181.437.437,0,0,1,.152.368v.215H3.944ZM9.75,12.27a.628.628,0,0,1-.606.646H3.083a.628.628,0,0,1-.606-.646V2.834H9.75Z" transform="translate(-0.5)"/>
  <path id="Path_21495" data-name="Path 21495" d="M351.14,400.135v-5.953H350v5.953" transform="translate(-346.951 -389.259)"/>
  <path id="Path_21499" data-name="Path 21499" d="M351.14,400.135v-5.953H350v5.953" transform="translate(-344.973 -389.259)"/>
  <path id="Path_21500" data-name="Path 21500" d="M351.14,400.135v-5.953H350v5.953" transform="translate(-342.995 -389.259)"/>
</svg>
