<?xml version="1.0" encoding="UTF-8"?>
<svg width="30px" height="30px" viewBox="0 0 30 30" version="1.1" xmlns="http://www.w3.org/2000/svg" xmlns:xlink="http://www.w3.org/1999/xlink">
    <title>footer-youtube</title>
    <g id="Symbols" stroke="none" stroke-width="1" fill="none" fill-rule="evenodd">
        <g id="social-icons" transform="translate(-90.000000, 0.000000)" fill="#0D5C91" fill-rule="nonzero">
            <g transform="translate(0.000000, -0.000000)" id="Group">
                <g transform="translate(90.000000, 0.000000)" id="footer-youtube">
                    <path d="M15,30 C6.7153125,30 0,23.2846875 0,15 C0,6.7153125 6.7153125,0 15,0 C23.2846875,0 30,6.7153125 30,15 C30,23.2846875 23.2846875,30 15,30 Z M22.9990901,11.4005711 C22.9990901,10.5172523 22.2921267,9.80050765 21.420478,9.80050765 C21.420478,9.80050765 18.3715274,9 15.3680699,9 C12.4519592,9 9.57861216,9.80050765 9.57861216,9.80050765 C8.70696348,9.80050765 8,10.5163005 8,11.4005711 L8,18.6003807 C8,19.4836995 8.70696348,20.1994923 9.57861216,20.1994923 C9.57861216,20.1994923 12.7176392,21 15.7629504,21 C18.632658,21 21.4213878,20.1994923 21.4213878,20.1994923 C22.2930365,20.1994923 23,19.4827477 23,18.6003807 L23,11.4005711 L22.9990901,11.4005711 Z M14.4473685,17.766432 C14.1115294,18.077856 13.567063,18.077856 13.231224,17.766432 C12.8953849,17.4550079 13.0592336,17.1480075 13.0592336,17.1480075 L13.0592336,15.4325211 C13.0592336,15.4325211 13.1091006,15.3785527 13.0592336,14.5743355 L13.0806052,13.3613743 C12.9126857,13.206547 13.0592336,13.0632211 13.0592336,12.8588491 C13.0592336,12.6544771 12.9137034,12.3899436 13.0806052,12.2342316 C13.4164443,11.9219228 13.9609107,11.9219228 14.2967498,12.2342316 L16.7473574,14.5070963 C17.0842142,14.8176356 17.0842142,15.3219302 16.7473574,15.634239 L14.4473685,17.7673167 L14.4473685,17.766432 Z"></path>
                </g>
            </g>
        </g>
    </g>
</svg>