<?xml version="1.0" encoding="utf-8"?>
<!-- Generator: Adobe Illustrator 25.2.3, SVG Export Plug-In . SVG Version: 6.00 Build 0)  -->
<svg version="1.1" id="Layer_1" xmlns="http://www.w3.org/2000/svg" xmlns:xlink="http://www.w3.org/1999/xlink" x="0px" y="0px"
	 viewBox="0 0 30 30" style="enable-background:new 0 0 30 30;" xml:space="preserve">
<style type="text/css">
	.st0{fill:#010101;}
	.st1{fill:#1E8943;}
	.st2{fill:#F8993A;}
	.st3{fill:#FFFFFF;}
	.st4{fill:#222160;}
</style>
<g>
	<path class="st0" d="M29.9,15c0,8.3-6.7,15-15,15s-15-6.7-15-15c0-8.3,6.7-15,15-15S29.9,6.7,29.9,15z"/>
	<g>
		<path class="st1" d="M14.9,29.9c6,0,11.1-3.5,13.5-8.6H1.5C3.8,26.3,8.9,29.9,14.9,29.9z"/>
		<path class="st2" d="M14.9,0.2c-6,0-11.1,3.5-13.5,8.6h26.9C26.1,3.8,20.9,0.2,14.9,0.2z"/>
		<path class="st3" d="M0.1,15c0,2.2,0.5,4.3,1.3,6.2h26.9c0.9-1.9,1.3-4,1.3-6.2c0-2.2-0.5-4.3-1.3-6.2H1.5
			C0.6,10.7,0.1,12.8,0.1,15z"/>
		<g>
			<path class="st4" d="M19.2,13.5c-0.1,0-0.2,0-0.3-0.2c0-0.1,0-0.2,0.2-0.3c0.1,0,0.2,0,0.3,0.2C19.4,13.3,19.3,13.4,19.2,13.5z"
				/>
			<path class="st4" d="M19.5,14.6c-0.1,0-0.2-0.1-0.2-0.2c0-0.1,0.1-0.2,0.2-0.2c0.1,0,0.2,0.1,0.2,0.2
				C19.7,14.5,19.6,14.6,19.5,14.6z"/>
			<path class="st4" d="M19.4,15.8c-0.1,0-0.2-0.2-0.2-0.3c0-0.1,0.2-0.2,0.3-0.2c0.1,0,0.2,0.2,0.2,0.3
				C19.7,15.8,19.6,15.8,19.4,15.8z"/>
			<path class="st4" d="M19.1,17c-0.1-0.1-0.1-0.2-0.1-0.3c0.1-0.1,0.2-0.1,0.3-0.1c0.1,0.1,0.1,0.2,0.1,0.3
				C19.3,17,19.2,17,19.1,17z"/>
			<path class="st4" d="M19.2,13.5c-0.1,0-0.2,0-0.3-0.2c0-0.1,0-0.2,0.2-0.3c0.1,0,0.2,0,0.3,0.2C19.4,13.3,19.3,13.4,19.2,13.5z"
				/>
			<path class="st4" d="M19.5,14.6c-0.1,0-0.2-0.1-0.2-0.2c0-0.1,0.1-0.2,0.2-0.2c0.1,0,0.2,0.1,0.2,0.2
				C19.7,14.5,19.6,14.6,19.5,14.6z"/>
			<path class="st4" d="M19.4,15.8c-0.1,0-0.2-0.2-0.2-0.3c0-0.1,0.2-0.2,0.3-0.2c0.1,0,0.2,0.2,0.2,0.3
				C19.7,15.8,19.6,15.8,19.4,15.8z"/>
			<path class="st4" d="M19.1,17c-0.1-0.1-0.1-0.2-0.1-0.3c0.1-0.1,0.2-0.1,0.3-0.1c0.1,0.1,0.1,0.2,0.1,0.3
				C19.3,17,19.2,17,19.1,17z"/>
			<g>
				<path class="st4" d="M14.5,10.5c0,0.1-0.1,0.2-0.2,0.2c-0.1,0-0.2-0.1-0.2-0.2c0-0.1,0.1-0.2,0.2-0.2
					C14.4,10.3,14.5,10.4,14.5,10.5z"/>
				<path class="st4" d="M15.7,10.5c0,0.1-0.2,0.2-0.3,0.2c-0.1,0-0.2-0.2-0.2-0.3c0-0.1,0.2-0.2,0.3-0.2
					C15.7,10.3,15.7,10.4,15.7,10.5z"/>
				<path class="st4" d="M16.8,10.9C16.8,11,16.7,11,16.5,11c-0.1-0.1-0.1-0.2-0.1-0.3c0.1-0.1,0.2-0.1,0.3-0.1
					C16.9,10.6,16.9,10.8,16.8,10.9z"/>
				<path class="st4" d="M17.9,11.5c-0.1,0.1-0.2,0.1-0.3,0c-0.1-0.1-0.1-0.2,0-0.3c0.1-0.1,0.2-0.1,0.3,0
					C17.9,11.3,17.9,11.4,17.9,11.5z"/>
				<path class="st4" d="M18.7,12.4c-0.1,0.1-0.2,0-0.3-0.1c-0.1-0.1,0-0.2,0.1-0.3c0.1-0.1,0.2,0,0.3,0.1
					C18.8,12.2,18.8,12.3,18.7,12.4z"/>
				<path class="st4" d="M18.4,18c-0.1-0.1-0.1-0.2,0-0.3c0.1-0.1,0.2-0.1,0.3,0c0.1,0.1,0.1,0.2,0,0.3C18.7,18.1,18.5,18.1,18.4,18
					z"/>
				<path class="st4" d="M17.6,18.8c-0.1-0.1,0-0.2,0.1-0.3c0.1-0.1,0.2,0,0.3,0.1c0.1,0.1,0,0.2-0.1,0.3
					C17.8,18.9,17.6,18.9,17.6,18.8z"/>
				<path class="st4" d="M16.5,19.3c0-0.1,0-0.2,0.2-0.3c0.1,0,0.2,0,0.3,0.2c0,0.1,0,0.2-0.2,0.3C16.7,19.5,16.5,19.5,16.5,19.3z"
					/>
				<path class="st4" d="M15.3,19.6c0-0.1,0.1-0.2,0.2-0.2c0.1,0,0.2,0.1,0.2,0.2c0,0.1-0.1,0.2-0.2,0.2
					C15.4,19.8,15.3,19.7,15.3,19.6z"/>
				<path class="st4" d="M14.2,19.6c0-0.1,0.2-0.2,0.3-0.2c0.1,0,0.2,0.2,0.2,0.3c0,0.1-0.2,0.2-0.3,0.2
					C14.2,19.8,14.1,19.7,14.2,19.6z"/>
				<path class="st4" d="M13,19.2c0.1-0.1,0.2-0.1,0.3-0.1c0.1,0.1,0.1,0.2,0.1,0.3c-0.1,0.1-0.2,0.1-0.3,0.1
					C13,19.4,13,19.3,13,19.2z"/>
				<path class="st4" d="M12,18.6c0.1-0.1,0.2-0.1,0.3,0c0.1,0.1,0.1,0.2,0,0.3c-0.1,0.1-0.2,0.1-0.3,0C11.9,18.8,11.9,18.6,12,18.6
					z"/>
				<path class="st4" d="M11.2,17.7c0.1-0.1,0.2,0,0.3,0.1c0.1,0.1,0,0.2-0.1,0.3c-0.1,0.1-0.2,0-0.3-0.1
					C11,17.9,11.1,17.7,11.2,17.7z"/>
				<path class="st4" d="M10.6,16.6c0.1,0,0.2,0,0.3,0.2c0,0.1,0,0.2-0.2,0.3c-0.1,0-0.2,0-0.3-0.2C10.4,16.8,10.5,16.7,10.6,16.6z"
					/>
				<path class="st4" d="M10.4,15.5c0.1,0,0.2,0.1,0.2,0.2c0,0.1-0.1,0.2-0.2,0.2c-0.1,0-0.2-0.1-0.2-0.2
					C10.2,15.6,10.2,15.5,10.4,15.5z"/>
				<path class="st4" d="M10.4,14.3c0.1,0,0.2,0.2,0.2,0.3c0,0.1-0.2,0.2-0.3,0.2c-0.1,0-0.2-0.2-0.2-0.3
					C10.2,14.3,10.3,14.2,10.4,14.3z"/>
				<path class="st4" d="M10.8,13.1c0.1,0.1,0.1,0.2,0.1,0.3c-0.1,0.1-0.2,0.1-0.3,0.1c-0.1-0.1-0.1-0.2-0.1-0.3
					C10.5,13.1,10.7,13.1,10.8,13.1z"/>
				<path class="st4" d="M11.4,12.1c0.1,0.1,0.1,0.2,0,0.3c-0.1,0.1-0.2,0.1-0.3,0c-0.1-0.1-0.1-0.2,0-0.3
					C11.2,12,11.3,12,11.4,12.1z"/>
				<path class="st4" d="M12.3,11.3c0.1,0.1,0,0.2-0.1,0.3c-0.1,0.1-0.2,0-0.3-0.1c-0.1-0.1,0-0.2,0.1-0.3
					C12.1,11.2,12.2,11.2,12.3,11.3z"/>
				<path class="st4" d="M13.3,10.7c0,0.1,0,0.2-0.2,0.3c-0.1,0-0.2,0-0.3-0.2c0-0.1,0-0.2,0.2-0.3C13.2,10.6,13.3,10.6,13.3,10.7z"
					/>
				<g>
					<polygon class="st4" points="14.8,15 15,13.2 14.8,10.5 14.7,13.2 					"/>
					<polygon class="st4" points="14.8,15 15.4,13.3 16,10.6 15.2,13.2 					"/>
					<polygon class="st4" points="14.8,15 15.9,13.5 17.1,11.1 15.6,13.4 					"/>
					<polygon class="st4" points="14.8,15 16.2,13.8 18.1,11.8 16,13.6 					"/>
					<polygon class="st4" points="14.8,15 16.5,14.2 18.8,12.7 16.3,14 					"/>
					<polygon class="st4" points="14.8,15 16.6,14.7 19.2,13.8 16.6,14.4 					"/>
					<polygon class="st4" points="14.8,15 16.7,15.2 19.4,15 16.7,14.9 					"/>
					<polygon class="st4" points="14.8,15 16.6,15.6 19.3,16.2 16.6,15.4 					"/>
					<polygon class="st4" points="14.8,15 16.3,16.1 18.8,17.3 16.5,15.8 					"/>
					<polygon class="st4" points="14.8,15 16,16.4 18.1,18.2 16.2,16.2 					"/>
					<polygon class="st4" points="14.8,15 15.6,16.7 17.1,19 15.9,16.5 					"/>
					<polygon class="st4" points="14.8,15 15.2,16.8 16,19.4 15.4,16.8 					"/>
					<polygon class="st4" points="14.8,15 14.7,16.9 14.8,19.6 15,16.9 					"/>
					<polygon class="st4" points="14.8,15 14.2,16.8 13.7,19.4 14.5,16.8 					"/>
					<polygon class="st4" points="14.8,15 13.8,16.5 12.6,19 14,16.7 					"/>
					<polygon class="st4" points="14.8,15 13.5,16.2 11.6,18.3 13.6,16.4 					"/>
					<polygon class="st4" points="14.8,15 13.2,15.8 10.9,17.3 13.3,16.1 					"/>
					<polygon class="st4" points="14.8,15 13,15.4 10.4,16.2 13.1,15.6 					"/>
					<polygon class="st4" points="14.8,15 13,14.9 10.3,15 13,15.2 					"/>
					<polygon class="st4" points="14.8,15 13.1,14.4 10.4,13.9 13,14.7 					"/>
					<polygon class="st4" points="14.8,15 13.3,14 10.9,12.8 13.2,14.2 					"/>
					<polygon class="st4" points="14.8,15 13.6,13.6 11.6,11.8 13.4,13.8 					"/>
					<polygon class="st4" points="14.8,15 14,13.4 12.5,11.1 13.8,13.5 					"/>
					<polygon class="st4" points="14.8,15 14.5,13.2 13.6,10.6 14.2,13.3 					"/>
				</g>
				<g>
					<path class="st4" d="M16.3,10c-2.8-0.7-5.6,0.9-6.4,3.7c-0.7,2.8,0.9,5.6,3.7,6.4c2.8,0.7,5.6-0.9,6.4-3.7
						C20.7,13.6,19,10.8,16.3,10z M13.7,19.5c-2.5-0.7-3.9-3.2-3.2-5.6c0.7-2.5,3.2-3.9,5.6-3.2c2.4,0.7,3.9,3.2,3.2,5.6
						C18.7,18.7,16.2,20.1,13.7,19.5z"/>
					<path class="st4" d="M15.8,15.3c-0.1,0.5-0.6,0.8-1.1,0.7c-0.5-0.1-0.8-0.6-0.7-1.1c0.1-0.5,0.6-0.8,1.1-0.7
						C15.7,14.3,16,14.8,15.8,15.3z"/>
				</g>
				<path class="st4" d="M16.8,10.9C16.8,11,16.7,11,16.5,11c-0.1-0.1-0.1-0.2-0.1-0.3c0.1-0.1,0.2-0.1,0.3-0.1
					C16.9,10.6,16.9,10.8,16.8,10.9z"/>
				<path class="st4" d="M17.9,11.5c-0.1,0.1-0.2,0.1-0.3,0c-0.1-0.1-0.1-0.2,0-0.3c0.1-0.1,0.2-0.1,0.3,0
					C17.9,11.3,17.9,11.4,17.9,11.5z"/>
				<path class="st4" d="M18.7,12.4c-0.1,0.1-0.2,0-0.3-0.1c-0.1-0.1,0-0.2,0.1-0.3c0.1-0.1,0.2,0,0.3,0.1
					C18.8,12.2,18.8,12.3,18.7,12.4z"/>
				<path class="st4" d="M18.4,18c-0.1-0.1-0.1-0.2,0-0.3c0.1-0.1,0.2-0.1,0.3,0c0.1,0.1,0.1,0.2,0,0.3C18.7,18.1,18.5,18.1,18.4,18
					z"/>
				<path class="st4" d="M17.6,18.8c-0.1-0.1,0-0.2,0.1-0.3c0.1-0.1,0.2,0,0.3,0.1c0.1,0.1,0,0.2-0.1,0.3
					C17.8,18.9,17.6,18.9,17.6,18.8z"/>
				<path class="st4" d="M16.5,19.3c0-0.1,0-0.2,0.2-0.3c0.1,0,0.2,0,0.3,0.2c0,0.1,0,0.2-0.2,0.3C16.7,19.5,16.5,19.5,16.5,19.3z"
					/>
				<path class="st4" d="M15.3,19.6c0-0.1,0.1-0.2,0.2-0.2c0.1,0,0.2,0.1,0.2,0.2c0,0.1-0.1,0.2-0.2,0.2
					C15.4,19.8,15.3,19.7,15.3,19.6z"/>
				<path class="st4" d="M14.2,19.6c0-0.1,0.2-0.2,0.3-0.2c0.1,0,0.2,0.2,0.2,0.3c0,0.1-0.2,0.2-0.3,0.2
					C14.2,19.8,14.1,19.7,14.2,19.6z"/>
				<path class="st4" d="M13,19.2c0.1-0.1,0.2-0.1,0.3-0.1c0.1,0.1,0.1,0.2,0.1,0.3c-0.1,0.1-0.2,0.1-0.3,0.1
					C13,19.4,13,19.3,13,19.2z"/>
				<path class="st4" d="M12,18.6c0.1-0.1,0.2-0.1,0.3,0c0.1,0.1,0.1,0.2,0,0.3c-0.1,0.1-0.2,0.1-0.3,0C11.9,18.8,11.9,18.6,12,18.6
					z"/>
				<path class="st4" d="M11.2,17.7c0.1-0.1,0.2,0,0.3,0.1c0.1,0.1,0,0.2-0.1,0.3c-0.1,0.1-0.2,0-0.3-0.1
					C11,17.9,11.1,17.7,11.2,17.7z"/>
				<path class="st4" d="M10.6,16.6c0.1,0,0.2,0,0.3,0.2c0,0.1,0,0.2-0.2,0.3c-0.1,0-0.2,0-0.3-0.2C10.4,16.8,10.5,16.7,10.6,16.6z"
					/>
				<path class="st4" d="M10.4,15.5c0.1,0,0.2,0.1,0.2,0.2c0,0.1-0.1,0.2-0.2,0.2c-0.1,0-0.2-0.1-0.2-0.2
					C10.2,15.6,10.2,15.5,10.4,15.5z"/>
				<path class="st4" d="M10.4,14.3c0.1,0,0.2,0.2,0.2,0.3c0,0.1-0.2,0.2-0.3,0.2c-0.1,0-0.2-0.2-0.2-0.3
					C10.2,14.3,10.3,14.2,10.4,14.3z"/>
				<path class="st4" d="M10.8,13.1c0.1,0.1,0.1,0.2,0.1,0.3c-0.1,0.1-0.2,0.1-0.3,0.1c-0.1-0.1-0.1-0.2-0.1-0.3
					C10.5,13.1,10.7,13.1,10.8,13.1z"/>
				<path class="st4" d="M11.4,12.1c0.1,0.1,0.1,0.2,0,0.3c-0.1,0.1-0.2,0.1-0.3,0c-0.1-0.1-0.1-0.2,0-0.3
					C11.2,12,11.3,12,11.4,12.1z"/>
				<path class="st4" d="M12.3,11.3c0.1,0.1,0,0.2-0.1,0.3c-0.1,0.1-0.2,0-0.3-0.1c-0.1-0.1,0-0.2,0.1-0.3
					C12.1,11.2,12.2,11.2,12.3,11.3z"/>
				<path class="st4" d="M13.3,10.7c0,0.1,0,0.2-0.2,0.3c-0.1,0-0.2,0-0.3-0.2c0-0.1,0-0.2,0.2-0.3C13.2,10.6,13.3,10.6,13.3,10.7z"
					/>
				<path class="st4" d="M14.5,10.5c0,0.1-0.1,0.2-0.2,0.2c-0.1,0-0.2-0.1-0.2-0.2c0-0.1,0.1-0.2,0.2-0.2
					C14.4,10.3,14.5,10.4,14.5,10.5z"/>
			</g>
		</g>
	</g>
</g>
</svg>
