<svg id="Lenovo_Yoga_REV-1C" xmlns="http://www.w3.org/2000/svg" width="197.667" height="97.717" viewBox="0 0 197.667 97.717">
  <g id="Group_24181" data-name="Group 24181" transform="translate(0 50.283)">
    <path id="Path_31269" data-name="Path 31269" d="M417.4,206.9l-22.063.021v6.06l17.742.022-.133.606c-1.617,7.418-8.268,12.4-16.548,12.4a17.1,17.1,0,1,1-.209-34.2,16.355,16.355,0,0,1,14.031,7.561l.372.592,5.871-2.715c-.089-.2-.2-.433-.312-.653-.237-.473-.895-1.507-.971-1.615a22.658,22.658,0,0,0-18.991-9.736c-13.393,0-24.29,10.639-24.29,23.717s10.877,23.717,24.247,23.717l1.267-.038a24.613,24.613,0,0,0,15.99-6.81,22.864,22.864,0,0,0,6.993-16.19,2.7,2.7,0,0,0-3-2.742h0Z" transform="translate(-270.953 -185.251)"/>
    <path id="Path_31270" data-name="Path 31270" d="M192.962,226.013a17.047,17.047,0,1,1,17.046-17.047,17.066,17.066,0,0,1-17.046,17.047Zm0-40.763c-13.365,0-24.238,10.639-24.238,23.717s10.873,23.717,24.238,23.717S217.2,222.044,217.2,208.967s-10.873-23.717-24.238-23.717Z" transform="translate(-122.927 -185.25)"/>
    <path id="Path_31271" data-name="Path 31271" d="M44.2,186.477a3.688,3.688,0,0,0-2.309-1.069,2.971,2.971,0,0,0-2.355.949L22.688,204.609,5.835,186.351a2.99,2.99,0,0,0-2.171-.948c-.058,0-.117,0-.177.005a3.687,3.687,0,0,0-2.308,1.069A3.689,3.689,0,0,0,.016,188.74a2.992,2.992,0,0,0,.853,2.392l18.372,19.83V229.61a3.2,3.2,0,0,0,3.447,3.143,3.2,3.2,0,0,0,3.447-3.143V210.965L44.5,191.139a3.2,3.2,0,0,0-.3-4.661h0Z" transform="translate(-0.001 -185.362)"/>
    <path id="Path_31272" data-name="Path 31272" d="M603.449,228.071l-20.42-41.208a2.715,2.715,0,0,0-2.444-1.523,2.744,2.744,0,0,0-2.46,1.553L557.73,228.071a2.961,2.961,0,0,0-.125,2.413,3.51,3.51,0,0,0,1.757,1.837,3.6,3.6,0,0,0,2.435.309,2.947,2.947,0,0,0,1.932-1.587l16.864-34.037,16.858,34.037a2.943,2.943,0,0,0,1.934,1.587,3.16,3.16,0,0,0,.773.094,3.759,3.759,0,0,0,1.66-.4,3.511,3.511,0,0,0,1.757-1.837,2.962,2.962,0,0,0-.125-2.413Z" transform="translate(-406.107 -185.316)"/>
  </g>
  <g id="Group_24182" data-name="Group 24182">
    <path id="Path_31273" data-name="Path 31273" d="M0,0H4.023V31.94H24.094v3.718H0Z"/>
    <path id="Path_31274" data-name="Path 31274" d="M93.909,46.087v-.1c0-7.59,5.348-13.7,12.633-13.7,7.794,0,12.277,6.214,12.277,13.907a10.308,10.308,0,0,1-.05,1.273H97.882c.561,5.706,4.585,8.915,9.271,8.915a10.9,10.9,0,0,0,8.3-3.718L117.9,54.85a13.593,13.593,0,0,1-10.85,4.941c-7.233,0-13.143-5.553-13.143-13.7Zm20.937-1.527c-.408-4.789-3.158-8.966-8.405-8.966-4.585,0-8.049,3.821-8.558,8.966Z" transform="translate(-68.418 -23.52)"/>
    <path id="Path_31275" data-name="Path 31275" d="M201.482,32.843H205.4v4.584a9.972,9.972,0,0,1,9.017-5.144c6.367,0,10.087,4.278,10.087,10.544V59.179h-3.923V43.8c0-4.89-2.649-7.947-7.285-7.947-4.534,0-7.9,3.312-7.9,8.252V59.179h-3.923Z" transform="translate(-146.793 -23.52)"/>
    <path id="Path_31276" data-name="Path 31276" d="M301.115,46.138v-.1a13.729,13.729,0,0,1,27.457-.1v.1A13.675,13.675,0,0,1,314.767,59.79a13.491,13.491,0,0,1-13.652-13.652Zm23.433,0v-.1c0-5.655-4.228-10.29-9.781-10.29-5.705,0-9.628,4.636-9.628,10.188v.1c0,5.655,4.177,10.239,9.73,10.239,5.7,0,9.678-4.584,9.678-10.137Z" transform="translate(-219.382 -23.52)"/>
    <path id="Path_31277" data-name="Path 31277" d="M402.894,34.345h4.329L416.087,56.2,425,34.345h4.228l-11.461,26.54H414.3Z" transform="translate(-293.535 -25.023)"/>
    <path id="Path_31278" data-name="Path 31278" d="M500.444,46.138v-.1a13.729,13.729,0,0,1,27.457-.1v.1A13.675,13.675,0,0,1,514.1,59.79a13.491,13.491,0,0,1-13.652-13.652Zm23.433,0v-.1c0-5.655-4.228-10.29-9.781-10.29-5.706,0-9.627,4.636-9.627,10.188v.1c0,5.655,4.177,10.239,9.729,10.239C519.9,56.275,523.877,51.691,523.877,46.138Z" transform="translate(-364.606 -23.52)"/>
  </g>
</svg>
