<svg id="icon" xmlns="http://www.w3.org/2000/svg" width="115" height="115" viewBox="0 0 115 115">
  <g id="Isolation_Mode" data-name="Isolation Mode">
    <g id="Group_23111" data-name="Group 23111">
      <g id="Bounding_Shape-Circle" data-name="Bounding Shape-Circle">
        <path id="Path_28830" data-name="Path 28830" d="M57.5,3.6A53.873,53.873,0,1,1,3.627,57.468h0A53.925,53.925,0,0,1,57.5,3.6m0-3.6A57.5,57.5,0,1,0,115,57.5,57.493,57.493,0,0,0,57.5,0Z" fill="#294e95"/>
      </g>
      <g id="Group_26069" data-name="Group 26069" transform="translate(16.085 13.514)">
        <path id="Path_33827" data-name="Path 33827" d="M691.728,312.471c.452.266.851.505,1.254.737q5.041,2.892,10.084,5.782c.106.061.213.121.317.185a1.091,1.091,0,0,1-.026,2.023q-3.92,2.264-7.852,4.51c-1.468.843-2.927,1.7-4.41,2.517a.886.886,0,0,0-.514.911c.015,4.562-.01,9.125.023,13.686a1.709,1.709,0,0,1-.985,1.7q-12.911,7.371-25.784,14.808a2.055,2.055,0,0,1-2.354.014q-12.948-7.491-25.943-14.9a1.56,1.56,0,0,1-.871-1.528c.018-4.6,0-9.206.02-13.809a.893.893,0,0,0-.526-.9q-6.036-3.433-12.047-6.911a2.013,2.013,0,0,1-.774-.732c-.279-.536,0-1.063.661-1.442q5.465-3.138,10.931-6.273c.193-.111.379-.231.633-.386-.29-.171-.526-.313-.765-.45q-5.333-3.06-10.665-6.122c-1.221-.7-1.218-1.577,0-2.274l15.921-9.133c.106-.061.21-.127.319-.181a1.107,1.107,0,0,1,1.5.373,1.062,1.062,0,0,1-.407,1.479c-.483.3-.987.574-1.482.858l-12.893,7.4c-.158.091-.311.19-.52.317a4.689,4.689,0,0,0,.392.286q5.2,2.987,10.4,5.976a.716.716,0,0,0,.833-.009q2.295-1.347,4.615-2.653a1.08,1.08,0,1,1,1.089,1.853c-1.284.752-2.578,1.485-3.918,2.255.168.116.288.214.42.29q11.886,6.822,23.771,13.648a.769.769,0,0,0,.886.042q11.983-6.9,23.978-13.776c.069-.04.133-.089.259-.175-.193-.125-.347-.235-.51-.329-1.7-.978-3.4-1.946-5.089-2.932a1.083,1.083,0,1,1,1.1-1.853c.072.038.142.079.213.12,2,1.148,4,2.285,5.988,3.455a.893.893,0,0,0,1.047,0c3.351-1.944,6.718-3.864,10.079-5.793.193-.111.381-.231.637-.387-.406-.239-.764-.455-1.126-.662l-15.494-8.9c-.141-.081-.288-.156-.42-.251a1.072,1.072,0,0,1,1.1-1.84c.932.5,1.844,1.047,2.764,1.575q7.774,4.462,15.547,8.923c.454.26.9.52.907,1.123.013.632-.431.91-.909,1.184q-5.391,3.082-10.773,6.18C692.168,312.2,691.981,312.318,691.728,312.471ZM688.419,329.8c-.287.154-.485.252-.676.362-3.572,2.05-7.149,4.092-10.709,6.162a1.641,1.641,0,0,1-1.864.016c-3.609-2.108-7.244-4.17-10.87-6.248-.167-.1-.339-.184-.535-.29v27.025c.2-.1.348-.17.486-.25q11.884-6.815,23.772-13.624a.81.81,0,0,0,.433-.837q-.014-5.833-.007-11.666C688.449,330.273,688.433,330.094,688.419,329.8Zm-51.565-.039v.739c0,3.829.014,7.658-.015,11.486a1.073,1.073,0,0,0,.642,1.087q10.465,5.977,20.909,11.989c1.02.585,2.044,1.161,3.131,1.779V329.807c-.275.149-.485.258-.69.376-3.591,2.06-7.186,4.112-10.766,6.19a1.505,1.505,0,0,1-1.7.005c-2.072-1.223-4.169-2.4-6.256-3.6Zm28.03-1.9a1.824,1.824,0,0,0,.218.186c3.553,2.042,7.1,4.087,10.671,6.1a.916.916,0,0,0,.755-.061q11.867-6.785,23.716-13.6c.161-.092.315-.194.525-.324-3.714-2.133-7.334-4.221-10.97-6.278a.938.938,0,0,0-.751.108q-9.612,5.491-19.207,11.011C668.2,325.948,666.563,326.894,664.883,327.862Zm-4.452.053a1.523,1.523,0,0,0-.151-.128q-12.095-6.944-24.2-13.873a.838.838,0,0,0-.7.033c-2.469,1.392-4.925,2.806-7.383,4.218-1.138.653-2.272,1.313-3.494,2.021,1.437.823,2.779,1.589,4.119,2.359q10.053,5.771,20.1,11.551a.8.8,0,0,0,.939.014c.9-.554,1.834-1.064,2.753-1.592Z" transform="translate(-621.223 -276.718)" fill="#294e95" stroke="#294e95" stroke-width="1"/>
        <path id="Path_33828" data-name="Path 33828" d="M798.613,182.933a38.288,38.288,0,0,1,2.346-12.31,64.3,64.3,0,0,1,4.469-9.821c.3-.529.693-.919,1.313-.725a1.279,1.279,0,0,1,.765.691,8.041,8.041,0,0,0,2.768,3.945c1.76,1.412,3.618,2.7,5.445,4.028.889.646,1.792,1.275,2.711,1.877a.833.833,0,0,0,.685.07,40.839,40.839,0,0,1,13.256-3.331c1.558-.157,3.129-.186,4.694-.275a1.139,1.139,0,0,1,1.237.586,1.226,1.226,0,0,1-.3,1.393,9.609,9.609,0,0,0-1.828,4.984c-.32,2.687-.52,5.388-.742,8.086a31.378,31.378,0,0,1-1.581,8.678,14.031,14.031,0,0,1-13.165,8.908,11.577,11.577,0,0,1-5.579-1.586,1.365,1.365,0,0,0-.788-.193c-6.221.81-10.735-1.548-13.51-7.125A18.785,18.785,0,0,1,798.613,182.933Zm37.052-13.515c-.22-.013-.36-.029-.5-.028a39.979,39.979,0,0,0-12.278,2.13A17.953,17.953,0,0,0,813,178.779a13.094,13.094,0,0,0-2.463,6.985c-.032,4.531,2.067,7.976,5.725,10.527a12.182,12.182,0,0,0,1.528.777c-.143-1.473-.34-2.863-.4-4.259a15.447,15.447,0,0,1,2.449-9.593,29.507,29.507,0,0,1,2.981-3.454.987.987,0,0,1,1.515.074,1.077,1.077,0,0,1-.071,1.49c-.182.192-.386.362-.576.546a13.008,13.008,0,0,0-3.844,6.6,20.641,20.641,0,0,0,.182,8.423c.108.581.344.74.914.75a12.031,12.031,0,0,0,11.072-8.137,39.169,39.169,0,0,0,1.353-8.785C833.637,176.886,833.887,173.042,835.665,169.418Zm-28.881-6.325c-.11.168-.2.3-.28.433a46.107,46.107,0,0,0-5.5,15.948,17.315,17.315,0,0,0,2.358,11.5,9.48,9.48,0,0,0,6.474,4.782c.813.159,1.654.174,2.483.256a1.624,1.624,0,0,0-.354-.637c-.142-.174-.286-.345-.422-.523a13.582,13.582,0,0,1-2.532-12.817,1.033,1.033,0,0,0-.159-.757,12.012,12.012,0,0,1-2.143-6.208,1.386,1.386,0,0,1,.383-1.011,1.187,1.187,0,0,1,1.051-.153,1.35,1.35,0,0,1,.637.923,10.99,10.99,0,0,0,1.4,4.461,20.181,20.181,0,0,1,6.509-7.232c-.267-.193-.476-.351-.692-.5-1.51-1.038-3.017-2.08-4.532-3.109a12.733,12.733,0,0,1-3.691-3.77C807.447,164.162,807.127,163.644,806.784,163.094Z" transform="translate(-776.799 -160.026)" fill="#294e95" stroke="#294e95" stroke-width="1"/>
      </g>
    </g>
  </g>
</svg>
