<svg id="icon-product-category-microphone-48" xmlns="http://www.w3.org/2000/svg" width="22.466" height="35.958" viewBox="0 0 22.466 35.958">
  <path id="Path_20279" data-name="Path 20279" d="M65.212,62.475A6.932,6.932,0,0,1,58.3,55.563V43.811a6.912,6.912,0,0,1,13.823,0v11.7A6.946,6.946,0,0,1,65.212,62.475Zm0-23.451a4.808,4.808,0,0,0-4.788,4.788V55.563a4.808,4.808,0,0,0,4.788,4.788A4.82,4.82,0,0,0,70,55.511v-11.7a4.808,4.808,0,0,0-4.788-4.788Z" transform="translate(-53.926 -36.9)" fill="#7a126b"/>
  <path id="Path_20280" data-name="Path 20280" d="M61.233,78.019A11.246,11.246,0,0,1,50,66.786V61.2h2.124v5.586a9.109,9.109,0,0,0,18.218,0V61.2h2.124v5.586a11.08,11.08,0,0,1-.888,4.362,11.354,11.354,0,0,1-5.983,5.983A11.08,11.08,0,0,1,61.233,78.019Z" transform="translate(-50 -48.123)" fill="#7a126b"/>
  <path id="Line_141" data-name="Line 141" d="M.624,6.482H-1.5V0H.624Z" transform="translate(11.724 28.835)" fill="#7a126b"/>
  <path id="Line_142" data-name="Line 142" d="M14.7.624H0V-1.5H14.7Z" transform="translate(3.908 35.334)" fill="#7a126b"/>
</svg>
