<svg xmlns="http://www.w3.org/2000/svg" width="42.218" height="42" viewBox="0 0 42.218 42">
  <g id="icon-day-night-sun-moon-cycle-svgrepo-com" transform="translate(1 1)">
    <line id="Line_66" data-name="Line 66" y2="40" transform="translate(20 0)" fill="none" stroke="#7a126b" stroke-linecap="round" stroke-linejoin="round" stroke-miterlimit="10" stroke-width="2"/>
    <path id="Path_35215" data-name="Path 35215" d="M19.828,30.656A10.828,10.828,0,1,1,19.828,9" transform="translate(0.281 0.281)" fill="none" stroke="#7a126b" stroke-linecap="round" stroke-linejoin="round" stroke-miterlimit="10" stroke-width="2"/>
    <line id="Line_67" data-name="Line 67" x2="3.279" y2="3.279" transform="translate(5.893 5.893)" fill="none" stroke="#7a126b" stroke-linecap="round" stroke-linejoin="round" stroke-miterlimit="10" stroke-width="2"/>
    <line id="Line_68" data-name="Line 68" x2="4.848" transform="translate(0 20)" fill="none" stroke="#7a126b" stroke-linecap="round" stroke-linejoin="round" stroke-miterlimit="10" stroke-width="2"/>
    <line id="Line_69" data-name="Line 69" y1="3.279" x2="3.279" transform="translate(5.893 31.045)" fill="none" stroke="#7a126b" stroke-linecap="round" stroke-linejoin="round" stroke-miterlimit="10" stroke-width="2"/>
    <path id="Path_35216" data-name="Path 35216" d="M16,14.491A10.816,10.816,0,0,1,25.42,9c.247,0,.48.015.727.031a8.115,8.115,0,1,0,9.962,12.437A10.817,10.817,0,0,1,16,25.164" transform="translate(4.109 0.281)" fill="none" stroke="#7a126b" stroke-linecap="round" stroke-linejoin="round" stroke-miterlimit="10" stroke-width="2"/>
  </g>
</svg>
