<svg id="icon-product-category-camera-48" xmlns="http://www.w3.org/2000/svg" width="42.678" height="33.981" viewBox="0 0 42.678 33.981">
  <path id="Path_20425" data-name="Path 20425" d="M48.479,35.95H57.9l5.368,7.14H74.528V69.931H31.85V43.09H43.111Zm8.374,2.095H49.525l-5.368,7.14H33.945V67.837H72.433V45.184H62.221Z" transform="translate(-31.85 -35.95)" fill="#7a126b"/>
  <path id="Path_20426" data-name="Path 20426" d="M43.184,46.036H41.089V42.145H38.245v3.891H36.15V40.05h7.034Z" transform="translate(-33.842 -37.849)" fill="#7a126b"/>
  <path id="Ellipse_28" data-name="Ellipse 28" d="M9.245-1.25a10.5,10.5,0,0,1,10.5,10.5,10.5,10.5,0,0,1-10.5,10.5,10.5,10.5,0,0,1-10.5-10.5,10.5,10.5,0,0,1,10.5-10.5Zm0,18.9a8.4,8.4,0,1,0-8.4-8.4A8.41,8.41,0,0,0,9.245,17.646Z" transform="translate(12.093 9.624)" fill="#7a126b"/>
  <path id="Path_20427" data-name="Path 20427" d="M62.745,66.029H60.65a5.859,5.859,0,0,1,5.879-5.879v2.095a3.764,3.764,0,0,0-3.784,3.784Z" transform="translate(-45.19 -47.159)" fill="#7a126b"/>
</svg>
