<svg id="icon" xmlns="http://www.w3.org/2000/svg" width="32" height="40.623" viewBox="0 0 32 40.623">
  <rect id="Rectangle_10515" data-name="Rectangle 10515" width="12.342" height="2.057" transform="translate(4.114 7.711)" fill="#7a126b"/>
  <path id="Path_35190" data-name="Path 35190" d="M75.2,60.667v6.371H58.747V34.151H75.2v1.928H77.26V32.219H73.146V28.35H60.793v3.869h-4.1V68.973H77.26V58.791ZM62.868,30.3h8.221v1.935H62.861Z" transform="translate(-56.69 -28.35)" fill="#7a126b"/>
  <path id="Path_35191" data-name="Path 35191" d="M79.425,62.36H68.03v2.057h10.3Z" transform="translate(-63.916 -50.792)" fill="#7a126b"/>
  <path id="Path_35192" data-name="Path 35192" d="M75.024,85.04H68.03V87.1h5.9Z" transform="translate(-63.916 -65.757)" fill="#7a126b"/>
  <path id="Path_35193" data-name="Path 35193" d="M77.223,73.7H68.03v2.057h8.094Z" transform="translate(-63.916 -58.274)" fill="#7a126b"/>
  <path id="Path_35194" data-name="Path 35194" d="M80.372,98.379l.57-2H68.03v2.057H80.357Z" transform="translate(-63.916 -73.24)" fill="#7a126b"/>
  <path id="Path_35195" data-name="Path 35195" d="M79.857,107.72H68.03v2.057H79.356Z" transform="translate(-63.916 -80.723)" fill="#7a126b"/>
  <path id="Path_35196" data-name="Path 35196" d="M78.852,119.06H68.03v2.053H78.351Z" transform="translate(-63.916 -88.205)" fill="#7a126b"/>
  <path id="Path_35197" data-name="Path 35197" d="M94.3,132.447h2.812V130.39h-.689Z" transform="translate(-81.54 -95.938)" fill="#7a126b"/>
  <path id="Path_35198" data-name="Path 35198" d="M77.851,130.39H68.03v2.057h9.32Z" transform="translate(-63.916 -95.938)" fill="#7a126b"/>
  <path id="Path_35199" data-name="Path 35199" d="M104.964,58.514l-1.857,2.7-1.912,2.776h6.131l-8.206,7.056.82-2.978.617-2.251H94.142l4.4-7.3h6.421m3.668-1.824H97.309l-6.6,10.935h7.219l-2.507,9.118L112.39,62.161h-7.542l3.773-5.467Z" transform="translate(-80.39 -46.409)" fill="#7a126b"/>
</svg>
