<?xml version="1.0" encoding="UTF-8"?>
<svg width="30px" height="30px" viewBox="0 0 30 30" version="1.1" xmlns="http://www.w3.org/2000/svg" xmlns:xlink="http://www.w3.org/1999/xlink">
    <title>footer-twitter</title>
    <g id="Symbols" stroke="none" stroke-width="1" fill="none" fill-rule="evenodd">
        <g id="social-icons" transform="translate(-45.000000, 0.000000)" fill="#0D5C91" fill-rule="nonzero">
            <g transform="translate(0.000000, -0.000000)" id="Group">
                <g transform="translate(45.000000, 0.000000)" id="footer-twitter">
                    <path d="M15,0 C6.71571402,0 0,6.71625 0,15 C0,23.28375 6.71571402,30 15,30 C23.284286,30 30,23.28375 30,15 C30,6.714375 23.284286,0 15,0 Z M22.4636861,11.6325 L22.4750047,12.110625 C22.4750047,16.99125 18.759668,22.6171875 11.9666101,22.6171875 C9.8811545,22.6171875 7.94095454,22.005 6.30635729,20.9578125 C6.59498208,20.990625 6.88926618,21.01125 7.18826636,21.01125 C8.91907187,21.01125 10.5102811,20.4196875 11.7732503,19.430625 C10.1575174,19.4015625 8.79456706,18.3328125 8.32390115,16.865625 C8.55121675,16.90875 8.77947557,16.9303125 9.01999623,16.9303125 C9.35766836,16.9303125 9.68307866,16.88625 9.99339747,16.801875 C8.30409357,16.460625 7.0298057,14.97 7.0298057,13.18125 L7.0298057,13.1353125 C7.52876816,13.4128125 8.09752877,13.5778125 8.70307489,13.5984375 C7.71269572,12.9365625 7.05998868,11.8059375 7.05998868,10.524375 C7.05998868,9.8484375 7.24202981,9.2146875 7.55895114,8.6690625 C9.37936238,10.903125 12.1014903,12.375 15.1707225,12.5278125 C15.1075269,12.2578125 15.0754575,11.97375 15.0754575,11.685 C15.0754575,9.6478125 16.7289191,7.9940625 18.7691002,7.9940625 C19.8311639,7.9940625 20.7904169,8.44125 21.4667044,9.159375 C22.3071119,8.9934375 23.098472,8.685 23.811545,8.2640625 C23.535182,9.1265625 22.9503867,9.849375 22.1882664,10.3078125 C22.9324656,10.2196875 23.647425,10.0190625 24.308621,9.725625 C23.8134314,10.464375 23.1861913,11.1159375 22.4646293,11.6325 L22.4636861,11.6325 Z"></path>
                </g>
            </g>
        </g>
    </g>
</svg>