<?xml version="1.0" encoding="utf-8"?>
<!-- Generator: Adobe Illustrator 25.2.1, SVG Export Plug-In . SVG Version: 6.00 Build 0)  -->
<svg version="1.1" id="Layer_1" xmlns="http://www.w3.org/2000/svg" xmlns:xlink="http://www.w3.org/1999/xlink" x="0px" y="0px"
	 viewBox="0 0 13.8 16.5" style="enable-background:new 0 0 13.8 16.5;" xml:space="preserve">
<path d="M13.6,16.1H12c0-2.7-2.3-4.9-5-4.9s-5,2.2-5,4.9H0.3c0-3.6,3-6.5,6.6-6.5C10.6,9.6,13.6,12.6,13.6,16.1z"/>
<path d="M6.9,1.9c-1.5,0-2.8,1.3-2.8,2.8s1.3,2.8,2.8,2.8c1.5,0,2.8-1.3,2.8-2.8S8.5,1.9,6.9,1.9z M6.9,9.1c-2.4,0-4.4-2-4.4-4.4
	c0-2.4,2-4.4,4.4-4.4c2.4,0,4.4,2,4.4,4.4S9.4,9.1,6.9,9.1z"/>
</svg>
