<svg width="1000" height="185" viewBox="0 0 1000 185" fill="none" xmlns="http://www.w3.org/2000/svg">
<g clip-path="url(#clip0_799_611)">
<path d="M361.139 146.969H338.402L316.232 62.5788L293.817 146.969H270.578L240.095 37.2783H260.717L282.7 124.53L306.698 37.2783H327.528L350.086 125.048L370.964 37.2783H390.876L361.139 146.969Z" fill="white"/>
<path d="M420.024 45.3024C420.024 48.2679 418.931 50.739 416.746 52.716C414.613 54.693 412.012 55.6815 408.943 55.6815C405.873 55.6815 403.272 54.6929 401.139 52.716C399.006 50.7391 397.939 48.2679 397.939 45.3024C397.939 42.285 399.006 39.7619 401.139 37.7327C403.324 35.7037 405.925 34.6892 408.943 34.6892C412.116 34.6892 414.744 35.7299 416.825 37.8107C418.958 39.8918 420.024 42.3891 420.024 45.3024ZM399.455 146.965V67.9156H417.885V146.965H399.455Z" fill="white"/>
<path d="M488.812 146.969V102.956C488.812 91.4241 485.235 81.4762 473.618 81.4762C462.061 81.4762 454.733 91.8826 454.733 102.41V146.967H436.706V67.9174H454.733V79.0989H455.045C461.028 69.8367 469.664 66.5844 480.953 66.5844C489.433 66.5844 495.988 68.6716 500.618 74.0823C505.3 79.4927 507.356 87.7126 507.356 98.7421V146.966L488.812 146.969Z" fill="white"/>
<path d="M579.333 146.969V136.793H579.021C573.298 146.418 561.617 148.637 553.472 148.637C529.267 148.637 520.385 129.834 520.385 109.824C520.385 96.558 523.688 85.9449 530.296 77.9851C536.955 69.9732 545.851 66.5054 556.984 66.5054C574.316 66.5054 579.021 76.1482 579.021 76.1482H579.333V30.4003H598.032V146.97L579.333 146.969ZM579.489 101.924C579.489 92.3751 573.352 81.5258 560.401 81.5258C545.585 81.5258 539.827 94.4191 539.827 109.279C539.827 122.253 545.26 134.028 559.369 134.223C573.204 134.223 579.377 121.038 579.489 110.138V101.924Z" fill="white"/>
<path d="M692.365 107.095C692.365 134.476 676 149.309 651.425 149.309C624.7 149.309 611.002 133.31 611.002 108.811C611.002 80.7823 627.416 66.2034 653.375 66.2034C677.16 66.2034 692.365 81.4078 692.365 107.095ZM673.167 107.719C673.167 95.5367 668.849 81.9952 652.36 81.9952C636.545 81.9952 630.402 93.764 630.402 108.187C630.402 123.855 637.781 133.821 652.247 133.821C667.745 133.821 673.054 121.927 673.167 107.719Z" fill="white"/>
<path d="M791.276 146.969H770.938L755.392 89.7578L738.713 146.969H718.973L695.976 68.1613H715.275L730.293 129.387L747.846 68.1613H765.948L781.598 129.228L796.238 68.1613H813.926L791.276 146.969Z" fill="white"/>
<path d="M871.816 124.964C871.816 142.564 855.856 149.424 839.858 149.424C829.438 149.424 819.063 145.41 819.063 145.41V126.69C819.063 126.69 828.081 134.549 840.679 134.647C849.315 134.647 853.205 131.924 853.205 126.739C853.419 122.579 850.886 120.285 847.858 118.565C845.777 117.317 842.526 115.782 838.104 113.961C832.901 111.724 829.025 109.565 826.476 107.484C823.979 105.403 822.106 102.958 820.857 100.149C819.661 97.3392 818.777 94.252 818.777 90.5061C818.777 76.2949 830.63 66.2537 849.575 66.2537C862.097 66.2537 867.524 69.3241 867.524 69.3241V87.1078C867.524 87.1078 858.625 80.9577 849.379 80.9018C842.753 80.9018 837.744 83.3139 837.656 88.7727C837.609 95.8088 846.225 99.2384 851.37 101.32C858.861 104.337 864.344 107.558 867.413 111.252C870.482 114.946 871.816 118.665 871.816 124.964Z" fill="white"/>
<path d="M944.323 34.0808V146.969H925.465V56.9208C925.465 56.9208 919 62.8936 902.404 67.2216V51.1524C927.069 42.0308 935.922 34.0819 935.922 34.0819L944.323 34.0808Z" fill="white"/>
<path d="M87.3271 0.000366211H0V87.3274H87.3271V0.000366211Z" fill="white"/>
<path d="M184.235 0.000366211H96.9082V87.3274H184.235V0.000366211Z" fill="white"/>
<path d="M87.3271 96.9163H0V184.243H87.3271V96.9163Z" fill="white"/>
<path d="M184.235 96.9163H96.9082V184.243H184.235V96.9163Z" fill="white"/>
<path d="M1000.01 34.0808V146.969H981.155V56.9208C981.155 56.9208 974.689 62.8936 958.094 67.2216V51.1524C982.758 42.0308 991.612 34.0819 991.612 34.0819L1000.01 34.0808Z" fill="white"/>
</g>
<defs>
<clipPath id="clip0_799_611">
<rect width="1000" height="184.24" fill="white"/>
</clipPath>
</defs>
</svg>
